M48
;DRILL file {KiCad 4.0.7} date 06/03/18 15:51:29
;FORMAT={-:-/ absolute / metric / decimal}
FMAT,2
METRIC,TZ
T1C0.600
T2C0.800
T3C0.900
T4C1.000
T5C1.200
T6C1.300
T7C1.520
%
G90
G05
M71
T1
X46.355Y-31.75
X47.625Y-33.02
X47.625Y-30.48
T2
X1.016Y-28.448
X4.064Y-35.56
X4.445Y-31.115
X4.445Y-15.875
X4.572Y-28.448
X6.985Y-31.115
X6.985Y-15.875
X9.525Y-31.115
X9.525Y-15.875
X12.065Y-31.115
X12.065Y-15.875
X14.605Y-31.115
X14.605Y-15.875
X17.145Y-31.115
X17.145Y-15.875
X19.685Y-31.115
X19.685Y-15.875
X22.225Y-31.115
X22.225Y-15.875
X22.352Y-35.56
X24.765Y-31.115
X24.765Y-15.875
X27.305Y-31.115
X27.305Y-15.875
X29.845Y-31.115
X29.845Y-15.875
X32.385Y-31.115
X32.385Y-15.875
X32.766Y-21.59
X32.766Y-19.59
X34.925Y-31.115
X34.925Y-15.875
X37.465Y-31.115
X37.465Y-15.875
X40.005Y-31.115
X40.005Y-15.875
T3
X36.83Y-21.59
X44.45Y-21.59
T4
X46.99Y-26.67
X46.99Y-24.13
X46.99Y-21.59
T5
X4.445Y-39.37
X6.985Y-39.37
X9.525Y-39.37
X12.065Y-39.37
X14.605Y-39.37
X17.145Y-39.37
X19.685Y-39.37
X22.225Y-39.37
X26.67Y-39.37
X29.21Y-39.37
X31.75Y-39.37
X34.29Y-39.37
X36.83Y-39.37
T6
X5.842Y-11.176
T7
X42.545Y-7.62
X47.625Y-40.64
X47.625Y-7.62
X52.705Y-40.64
X52.705Y-7.62
T0
M30
