G04 #@! TF.FileFunction,Legend,Bot*
%FSLAX46Y46*%
G04 Gerber Fmt 4.6, Leading zero omitted, Abs format (unit mm)*
G04 Created by KiCad (PCBNEW 4.0.7) date 06/02/18 17:24:57*
%MOMM*%
%LPD*%
G01*
G04 APERTURE LIST*
%ADD10C,0.100000*%
%ADD11C,0.150000*%
%ADD12C,0.120000*%
G04 APERTURE END LIST*
D10*
D11*
X1666666Y0D02*
G75*
G03X1666666Y0I-1666666J0D01*
G01*
X-2500000Y0D02*
X2500000Y0D01*
X0Y2500000D02*
X0Y-2500000D01*
D12*
X4245000Y9160000D02*
X4245000Y11160000D01*
X2105000Y11160000D02*
X2105000Y9160000D01*
X8620000Y10410000D02*
X6620000Y10410000D01*
X6620000Y12450000D02*
X8620000Y12450000D01*
X23745000Y7255000D02*
X23745000Y9255000D01*
X25785000Y9255000D02*
X25785000Y7255000D01*
X18665000Y10430000D02*
X18665000Y12430000D01*
X20705000Y12430000D02*
X20705000Y10430000D01*
X32115000Y44700000D02*
X30115000Y44700000D01*
X30115000Y46740000D02*
X32115000Y46740000D01*
X49222000Y25892000D02*
X49222000Y23892000D01*
X51362000Y23892000D02*
X51362000Y25892000D01*
X8620000Y9960000D02*
X6620000Y9960000D01*
X6620000Y7820000D02*
X8620000Y7820000D01*
X30210000Y11230000D02*
X28210000Y11230000D01*
X28210000Y9090000D02*
X30210000Y9090000D01*
X21155000Y12430000D02*
X21155000Y10430000D01*
X23295000Y10430000D02*
X23295000Y12430000D01*
X24368000Y28502000D02*
X22368000Y28502000D01*
X22368000Y26362000D02*
X24368000Y26362000D01*
X21955000Y3610000D02*
X19955000Y3610000D01*
X19955000Y1470000D02*
X21955000Y1470000D01*
X17580000Y10430000D02*
X17580000Y12430000D01*
X15440000Y12430000D02*
X15440000Y10430000D01*
X10595000Y33925000D02*
X10595000Y35925000D01*
X8455000Y35925000D02*
X8455000Y33925000D01*
X4048000Y35106000D02*
X2048000Y35106000D01*
X2048000Y32966000D02*
X4048000Y32966000D01*
X15675000Y33925000D02*
X15675000Y35925000D01*
X13535000Y35925000D02*
X13535000Y33925000D01*
X8055000Y33925000D02*
X8055000Y35925000D01*
X5915000Y35925000D02*
X5915000Y33925000D01*
X4556000Y21898000D02*
X2556000Y21898000D01*
X2556000Y19758000D02*
X4556000Y19758000D01*
X8455000Y44815000D02*
X8455000Y42815000D01*
X10595000Y42815000D02*
X10595000Y44815000D01*
X10995000Y44815000D02*
X10995000Y42815000D01*
X13135000Y42815000D02*
X13135000Y44815000D01*
X13535000Y44815000D02*
X13535000Y42815000D01*
X15675000Y42815000D02*
X15675000Y44815000D01*
X16075000Y44815000D02*
X16075000Y42815000D01*
X18215000Y42815000D02*
X18215000Y44815000D01*
X19885000Y44815000D02*
X19885000Y42815000D01*
X22025000Y42815000D02*
X22025000Y44815000D01*
X22565000Y7250000D02*
X22565000Y5450000D01*
X19345000Y5450000D02*
X19345000Y7900000D01*
X26400000Y3610000D02*
X24400000Y3610000D01*
X24400000Y1470000D02*
X26400000Y1470000D01*
D11*
X1777381Y10326666D02*
X1301190Y10660000D01*
X1777381Y10898095D02*
X777381Y10898095D01*
X777381Y10517142D01*
X825000Y10421904D01*
X872619Y10374285D01*
X967857Y10326666D01*
X1110714Y10326666D01*
X1205952Y10374285D01*
X1253571Y10421904D01*
X1301190Y10517142D01*
X1301190Y10898095D01*
X1777381Y9374285D02*
X1777381Y9945714D01*
X1777381Y9660000D02*
X777381Y9660000D01*
X920238Y9755238D01*
X1015476Y9850476D01*
X1063095Y9945714D01*
X7786666Y9322857D02*
X7834285Y9275238D01*
X7977142Y9227619D01*
X8072380Y9227619D01*
X8215238Y9275238D01*
X8310476Y9370476D01*
X8358095Y9465714D01*
X8405714Y9656190D01*
X8405714Y9799048D01*
X8358095Y9989524D01*
X8310476Y10084762D01*
X8215238Y10180000D01*
X8072380Y10227619D01*
X7977142Y10227619D01*
X7834285Y10180000D01*
X7786666Y10132381D01*
X6834285Y9227619D02*
X7405714Y9227619D01*
X7120000Y9227619D02*
X7120000Y10227619D01*
X7215238Y10084762D01*
X7310476Y9989524D01*
X7405714Y9941905D01*
X23372143Y8421666D02*
X23419762Y8469285D01*
X23467381Y8612142D01*
X23467381Y8707380D01*
X23419762Y8850238D01*
X23324524Y8945476D01*
X23229286Y8993095D01*
X23038810Y9040714D01*
X22895952Y9040714D01*
X22705476Y8993095D01*
X22610238Y8945476D01*
X22515000Y8850238D01*
X22467381Y8707380D01*
X22467381Y8612142D01*
X22515000Y8469285D01*
X22562619Y8421666D01*
X22562619Y8040714D02*
X22515000Y7993095D01*
X22467381Y7897857D01*
X22467381Y7659761D01*
X22515000Y7564523D01*
X22562619Y7516904D01*
X22657857Y7469285D01*
X22753095Y7469285D01*
X22895952Y7516904D01*
X23467381Y8088333D01*
X23467381Y7469285D01*
X18292143Y11596666D02*
X18339762Y11644285D01*
X18387381Y11787142D01*
X18387381Y11882380D01*
X18339762Y12025238D01*
X18244524Y12120476D01*
X18149286Y12168095D01*
X17958810Y12215714D01*
X17815952Y12215714D01*
X17625476Y12168095D01*
X17530238Y12120476D01*
X17435000Y12025238D01*
X17387381Y11882380D01*
X17387381Y11787142D01*
X17435000Y11644285D01*
X17482619Y11596666D01*
X17387381Y11263333D02*
X17387381Y10644285D01*
X17768333Y10977619D01*
X17768333Y10834761D01*
X17815952Y10739523D01*
X17863571Y10691904D01*
X17958810Y10644285D01*
X18196905Y10644285D01*
X18292143Y10691904D01*
X18339762Y10739523D01*
X18387381Y10834761D01*
X18387381Y11120476D01*
X18339762Y11215714D01*
X18292143Y11263333D01*
X31281666Y43612857D02*
X31329285Y43565238D01*
X31472142Y43517619D01*
X31567380Y43517619D01*
X31710238Y43565238D01*
X31805476Y43660476D01*
X31853095Y43755714D01*
X31900714Y43946190D01*
X31900714Y44089048D01*
X31853095Y44279524D01*
X31805476Y44374762D01*
X31710238Y44470000D01*
X31567380Y44517619D01*
X31472142Y44517619D01*
X31329285Y44470000D01*
X31281666Y44422381D01*
X30424523Y44184286D02*
X30424523Y43517619D01*
X30662619Y44565238D02*
X30900714Y43850952D01*
X30281666Y43850952D01*
X52594381Y25058666D02*
X52118190Y25392000D01*
X52594381Y25630095D02*
X51594381Y25630095D01*
X51594381Y25249142D01*
X51642000Y25153904D01*
X51689619Y25106285D01*
X51784857Y25058666D01*
X51927714Y25058666D01*
X52022952Y25106285D01*
X52070571Y25153904D01*
X52118190Y25249142D01*
X52118190Y25630095D01*
X51689619Y24677714D02*
X51642000Y24630095D01*
X51594381Y24534857D01*
X51594381Y24296761D01*
X51642000Y24201523D01*
X51689619Y24153904D01*
X51784857Y24106285D01*
X51880095Y24106285D01*
X52022952Y24153904D01*
X52594381Y24725333D01*
X52594381Y24106285D01*
X7786666Y6587619D02*
X8120000Y7063810D01*
X8358095Y6587619D02*
X8358095Y7587619D01*
X7977142Y7587619D01*
X7881904Y7540000D01*
X7834285Y7492381D01*
X7786666Y7397143D01*
X7786666Y7254286D01*
X7834285Y7159048D01*
X7881904Y7111429D01*
X7977142Y7063810D01*
X8358095Y7063810D01*
X7453333Y7587619D02*
X6834285Y7587619D01*
X7167619Y7206667D01*
X7024761Y7206667D01*
X6929523Y7159048D01*
X6881904Y7111429D01*
X6834285Y7016190D01*
X6834285Y6778095D01*
X6881904Y6682857D01*
X6929523Y6635238D01*
X7024761Y6587619D01*
X7310476Y6587619D01*
X7405714Y6635238D01*
X7453333Y6682857D01*
X29376666Y7857619D02*
X29710000Y8333810D01*
X29948095Y7857619D02*
X29948095Y8857619D01*
X29567142Y8857619D01*
X29471904Y8810000D01*
X29424285Y8762381D01*
X29376666Y8667143D01*
X29376666Y8524286D01*
X29424285Y8429048D01*
X29471904Y8381429D01*
X29567142Y8333810D01*
X29948095Y8333810D01*
X28519523Y8524286D02*
X28519523Y7857619D01*
X28757619Y8905238D02*
X28995714Y8190952D01*
X28376666Y8190952D01*
X24527381Y11596666D02*
X24051190Y11930000D01*
X24527381Y12168095D02*
X23527381Y12168095D01*
X23527381Y11787142D01*
X23575000Y11691904D01*
X23622619Y11644285D01*
X23717857Y11596666D01*
X23860714Y11596666D01*
X23955952Y11644285D01*
X24003571Y11691904D01*
X24051190Y11787142D01*
X24051190Y12168095D01*
X23527381Y10691904D02*
X23527381Y11168095D01*
X24003571Y11215714D01*
X23955952Y11168095D01*
X23908333Y11072857D01*
X23908333Y10834761D01*
X23955952Y10739523D01*
X24003571Y10691904D01*
X24098810Y10644285D01*
X24336905Y10644285D01*
X24432143Y10691904D01*
X24479762Y10739523D01*
X24527381Y10834761D01*
X24527381Y11072857D01*
X24479762Y11168095D01*
X24432143Y11215714D01*
X23534666Y25129619D02*
X23868000Y25605810D01*
X24106095Y25129619D02*
X24106095Y26129619D01*
X23725142Y26129619D01*
X23629904Y26082000D01*
X23582285Y26034381D01*
X23534666Y25939143D01*
X23534666Y25796286D01*
X23582285Y25701048D01*
X23629904Y25653429D01*
X23725142Y25605810D01*
X24106095Y25605810D01*
X22677523Y26129619D02*
X22868000Y26129619D01*
X22963238Y26082000D01*
X23010857Y26034381D01*
X23106095Y25891524D01*
X23153714Y25701048D01*
X23153714Y25320095D01*
X23106095Y25224857D01*
X23058476Y25177238D01*
X22963238Y25129619D01*
X22772761Y25129619D01*
X22677523Y25177238D01*
X22629904Y25224857D01*
X22582285Y25320095D01*
X22582285Y25558190D01*
X22629904Y25653429D01*
X22677523Y25701048D01*
X22772761Y25748667D01*
X22963238Y25748667D01*
X23058476Y25701048D01*
X23106095Y25653429D01*
X23153714Y25558190D01*
X21121666Y237619D02*
X21455000Y713810D01*
X21693095Y237619D02*
X21693095Y1237619D01*
X21312142Y1237619D01*
X21216904Y1190000D01*
X21169285Y1142381D01*
X21121666Y1047143D01*
X21121666Y904286D01*
X21169285Y809048D01*
X21216904Y761429D01*
X21312142Y713810D01*
X21693095Y713810D01*
X20550238Y809048D02*
X20645476Y856667D01*
X20693095Y904286D01*
X20740714Y999524D01*
X20740714Y1047143D01*
X20693095Y1142381D01*
X20645476Y1190000D01*
X20550238Y1237619D01*
X20359761Y1237619D01*
X20264523Y1190000D01*
X20216904Y1142381D01*
X20169285Y1047143D01*
X20169285Y999524D01*
X20216904Y904286D01*
X20264523Y856667D01*
X20359761Y809048D01*
X20550238Y809048D01*
X20645476Y761429D01*
X20693095Y713810D01*
X20740714Y618571D01*
X20740714Y428095D01*
X20693095Y332857D01*
X20645476Y285238D01*
X20550238Y237619D01*
X20359761Y237619D01*
X20264523Y285238D01*
X20216904Y332857D01*
X20169285Y428095D01*
X20169285Y618571D01*
X20216904Y713810D01*
X20264523Y761429D01*
X20359761Y809048D01*
X15112381Y11596666D02*
X14636190Y11930000D01*
X15112381Y12168095D02*
X14112381Y12168095D01*
X14112381Y11787142D01*
X14160000Y11691904D01*
X14207619Y11644285D01*
X14302857Y11596666D01*
X14445714Y11596666D01*
X14540952Y11644285D01*
X14588571Y11691904D01*
X14636190Y11787142D01*
X14636190Y12168095D01*
X15112381Y11120476D02*
X15112381Y10930000D01*
X15064762Y10834761D01*
X15017143Y10787142D01*
X14874286Y10691904D01*
X14683810Y10644285D01*
X14302857Y10644285D01*
X14207619Y10691904D01*
X14160000Y10739523D01*
X14112381Y10834761D01*
X14112381Y11025238D01*
X14160000Y11120476D01*
X14207619Y11168095D01*
X14302857Y11215714D01*
X14540952Y11215714D01*
X14636190Y11168095D01*
X14683810Y11120476D01*
X14731429Y11025238D01*
X14731429Y10834761D01*
X14683810Y10739523D01*
X14636190Y10691904D01*
X14540952Y10644285D01*
X8127381Y35567857D02*
X7651190Y35901191D01*
X8127381Y36139286D02*
X7127381Y36139286D01*
X7127381Y35758333D01*
X7175000Y35663095D01*
X7222619Y35615476D01*
X7317857Y35567857D01*
X7460714Y35567857D01*
X7555952Y35615476D01*
X7603571Y35663095D01*
X7651190Y35758333D01*
X7651190Y36139286D01*
X8127381Y34615476D02*
X8127381Y35186905D01*
X8127381Y34901191D02*
X7127381Y34901191D01*
X7270238Y34996429D01*
X7365476Y35091667D01*
X7413095Y35186905D01*
X7127381Y33996429D02*
X7127381Y33901190D01*
X7175000Y33805952D01*
X7222619Y33758333D01*
X7317857Y33710714D01*
X7508333Y33663095D01*
X7746429Y33663095D01*
X7936905Y33710714D01*
X8032143Y33758333D01*
X8079762Y33805952D01*
X8127381Y33901190D01*
X8127381Y33996429D01*
X8079762Y34091667D01*
X8032143Y34139286D01*
X7936905Y34186905D01*
X7746429Y34234524D01*
X7508333Y34234524D01*
X7317857Y34186905D01*
X7222619Y34139286D01*
X7175000Y34091667D01*
X7127381Y33996429D01*
X3690857Y31733619D02*
X4024191Y32209810D01*
X4262286Y31733619D02*
X4262286Y32733619D01*
X3881333Y32733619D01*
X3786095Y32686000D01*
X3738476Y32638381D01*
X3690857Y32543143D01*
X3690857Y32400286D01*
X3738476Y32305048D01*
X3786095Y32257429D01*
X3881333Y32209810D01*
X4262286Y32209810D01*
X2738476Y31733619D02*
X3309905Y31733619D01*
X3024191Y31733619D02*
X3024191Y32733619D01*
X3119429Y32590762D01*
X3214667Y32495524D01*
X3309905Y32447905D01*
X1786095Y31733619D02*
X2357524Y31733619D01*
X2071810Y31733619D02*
X2071810Y32733619D01*
X2167048Y32590762D01*
X2262286Y32495524D01*
X2357524Y32447905D01*
X13207381Y35567857D02*
X12731190Y35901191D01*
X13207381Y36139286D02*
X12207381Y36139286D01*
X12207381Y35758333D01*
X12255000Y35663095D01*
X12302619Y35615476D01*
X12397857Y35567857D01*
X12540714Y35567857D01*
X12635952Y35615476D01*
X12683571Y35663095D01*
X12731190Y35758333D01*
X12731190Y36139286D01*
X13207381Y34615476D02*
X13207381Y35186905D01*
X13207381Y34901191D02*
X12207381Y34901191D01*
X12350238Y34996429D01*
X12445476Y35091667D01*
X12493095Y35186905D01*
X12302619Y34234524D02*
X12255000Y34186905D01*
X12207381Y34091667D01*
X12207381Y33853571D01*
X12255000Y33758333D01*
X12302619Y33710714D01*
X12397857Y33663095D01*
X12493095Y33663095D01*
X12635952Y33710714D01*
X13207381Y34282143D01*
X13207381Y33663095D01*
X5587381Y35567857D02*
X5111190Y35901191D01*
X5587381Y36139286D02*
X4587381Y36139286D01*
X4587381Y35758333D01*
X4635000Y35663095D01*
X4682619Y35615476D01*
X4777857Y35567857D01*
X4920714Y35567857D01*
X5015952Y35615476D01*
X5063571Y35663095D01*
X5111190Y35758333D01*
X5111190Y36139286D01*
X5587381Y34615476D02*
X5587381Y35186905D01*
X5587381Y34901191D02*
X4587381Y34901191D01*
X4730238Y34996429D01*
X4825476Y35091667D01*
X4873095Y35186905D01*
X4587381Y34282143D02*
X4587381Y33663095D01*
X4968333Y33996429D01*
X4968333Y33853571D01*
X5015952Y33758333D01*
X5063571Y33710714D01*
X5158810Y33663095D01*
X5396905Y33663095D01*
X5492143Y33710714D01*
X5539762Y33758333D01*
X5587381Y33853571D01*
X5587381Y34139286D01*
X5539762Y34234524D01*
X5492143Y34282143D01*
X4198857Y18525619D02*
X4532191Y19001810D01*
X4770286Y18525619D02*
X4770286Y19525619D01*
X4389333Y19525619D01*
X4294095Y19478000D01*
X4246476Y19430381D01*
X4198857Y19335143D01*
X4198857Y19192286D01*
X4246476Y19097048D01*
X4294095Y19049429D01*
X4389333Y19001810D01*
X4770286Y19001810D01*
X3246476Y18525619D02*
X3817905Y18525619D01*
X3532191Y18525619D02*
X3532191Y19525619D01*
X3627429Y19382762D01*
X3722667Y19287524D01*
X3817905Y19239905D01*
X2389333Y19192286D02*
X2389333Y18525619D01*
X2627429Y19573238D02*
X2865524Y18858952D01*
X2246476Y18858952D01*
X11827381Y44457857D02*
X11351190Y44791191D01*
X11827381Y45029286D02*
X10827381Y45029286D01*
X10827381Y44648333D01*
X10875000Y44553095D01*
X10922619Y44505476D01*
X11017857Y44457857D01*
X11160714Y44457857D01*
X11255952Y44505476D01*
X11303571Y44553095D01*
X11351190Y44648333D01*
X11351190Y45029286D01*
X11827381Y43505476D02*
X11827381Y44076905D01*
X11827381Y43791191D02*
X10827381Y43791191D01*
X10970238Y43886429D01*
X11065476Y43981667D01*
X11113095Y44076905D01*
X10827381Y42600714D02*
X10827381Y43076905D01*
X11303571Y43124524D01*
X11255952Y43076905D01*
X11208333Y42981667D01*
X11208333Y42743571D01*
X11255952Y42648333D01*
X11303571Y42600714D01*
X11398810Y42553095D01*
X11636905Y42553095D01*
X11732143Y42600714D01*
X11779762Y42648333D01*
X11827381Y42743571D01*
X11827381Y42981667D01*
X11779762Y43076905D01*
X11732143Y43124524D01*
X14367381Y44457857D02*
X13891190Y44791191D01*
X14367381Y45029286D02*
X13367381Y45029286D01*
X13367381Y44648333D01*
X13415000Y44553095D01*
X13462619Y44505476D01*
X13557857Y44457857D01*
X13700714Y44457857D01*
X13795952Y44505476D01*
X13843571Y44553095D01*
X13891190Y44648333D01*
X13891190Y45029286D01*
X14367381Y43505476D02*
X14367381Y44076905D01*
X14367381Y43791191D02*
X13367381Y43791191D01*
X13510238Y43886429D01*
X13605476Y43981667D01*
X13653095Y44076905D01*
X13367381Y42648333D02*
X13367381Y42838810D01*
X13415000Y42934048D01*
X13462619Y42981667D01*
X13605476Y43076905D01*
X13795952Y43124524D01*
X14176905Y43124524D01*
X14272143Y43076905D01*
X14319762Y43029286D01*
X14367381Y42934048D01*
X14367381Y42743571D01*
X14319762Y42648333D01*
X14272143Y42600714D01*
X14176905Y42553095D01*
X13938810Y42553095D01*
X13843571Y42600714D01*
X13795952Y42648333D01*
X13748333Y42743571D01*
X13748333Y42934048D01*
X13795952Y43029286D01*
X13843571Y43076905D01*
X13938810Y43124524D01*
X16907381Y44457857D02*
X16431190Y44791191D01*
X16907381Y45029286D02*
X15907381Y45029286D01*
X15907381Y44648333D01*
X15955000Y44553095D01*
X16002619Y44505476D01*
X16097857Y44457857D01*
X16240714Y44457857D01*
X16335952Y44505476D01*
X16383571Y44553095D01*
X16431190Y44648333D01*
X16431190Y45029286D01*
X16907381Y43505476D02*
X16907381Y44076905D01*
X16907381Y43791191D02*
X15907381Y43791191D01*
X16050238Y43886429D01*
X16145476Y43981667D01*
X16193095Y44076905D01*
X15907381Y43172143D02*
X15907381Y42505476D01*
X16907381Y42934048D01*
X19447381Y44457857D02*
X18971190Y44791191D01*
X19447381Y45029286D02*
X18447381Y45029286D01*
X18447381Y44648333D01*
X18495000Y44553095D01*
X18542619Y44505476D01*
X18637857Y44457857D01*
X18780714Y44457857D01*
X18875952Y44505476D01*
X18923571Y44553095D01*
X18971190Y44648333D01*
X18971190Y45029286D01*
X19447381Y43505476D02*
X19447381Y44076905D01*
X19447381Y43791191D02*
X18447381Y43791191D01*
X18590238Y43886429D01*
X18685476Y43981667D01*
X18733095Y44076905D01*
X18875952Y42934048D02*
X18828333Y43029286D01*
X18780714Y43076905D01*
X18685476Y43124524D01*
X18637857Y43124524D01*
X18542619Y43076905D01*
X18495000Y43029286D01*
X18447381Y42934048D01*
X18447381Y42743571D01*
X18495000Y42648333D01*
X18542619Y42600714D01*
X18637857Y42553095D01*
X18685476Y42553095D01*
X18780714Y42600714D01*
X18828333Y42648333D01*
X18875952Y42743571D01*
X18875952Y42934048D01*
X18923571Y43029286D01*
X18971190Y43076905D01*
X19066429Y43124524D01*
X19256905Y43124524D01*
X19352143Y43076905D01*
X19399762Y43029286D01*
X19447381Y42934048D01*
X19447381Y42743571D01*
X19399762Y42648333D01*
X19352143Y42600714D01*
X19256905Y42553095D01*
X19066429Y42553095D01*
X18971190Y42600714D01*
X18923571Y42648333D01*
X18875952Y42743571D01*
X23257381Y44457857D02*
X22781190Y44791191D01*
X23257381Y45029286D02*
X22257381Y45029286D01*
X22257381Y44648333D01*
X22305000Y44553095D01*
X22352619Y44505476D01*
X22447857Y44457857D01*
X22590714Y44457857D01*
X22685952Y44505476D01*
X22733571Y44553095D01*
X22781190Y44648333D01*
X22781190Y45029286D01*
X23257381Y43505476D02*
X23257381Y44076905D01*
X23257381Y43791191D02*
X22257381Y43791191D01*
X22400238Y43886429D01*
X22495476Y43981667D01*
X22543095Y44076905D01*
X23257381Y43029286D02*
X23257381Y42838810D01*
X23209762Y42743571D01*
X23162143Y42695952D01*
X23019286Y42600714D01*
X22828810Y42553095D01*
X22447857Y42553095D01*
X22352619Y42600714D01*
X22305000Y42648333D01*
X22257381Y42743571D01*
X22257381Y42934048D01*
X22305000Y43029286D01*
X22352619Y43076905D01*
X22447857Y43124524D01*
X22685952Y43124524D01*
X22781190Y43076905D01*
X22828810Y43029286D01*
X22876429Y42934048D01*
X22876429Y42743571D01*
X22828810Y42648333D01*
X22781190Y42600714D01*
X22685952Y42553095D01*
X17507381Y7111905D02*
X18316905Y7111905D01*
X18412143Y7064286D01*
X18459762Y7016667D01*
X18507381Y6921429D01*
X18507381Y6730952D01*
X18459762Y6635714D01*
X18412143Y6588095D01*
X18316905Y6540476D01*
X17507381Y6540476D01*
X18507381Y5540476D02*
X18507381Y6111905D01*
X18507381Y5826191D02*
X17507381Y5826191D01*
X17650238Y5921429D01*
X17745476Y6016667D01*
X17793095Y6111905D01*
X25566666Y237619D02*
X25900000Y713810D01*
X26138095Y237619D02*
X26138095Y1237619D01*
X25757142Y1237619D01*
X25661904Y1190000D01*
X25614285Y1142381D01*
X25566666Y1047143D01*
X25566666Y904286D01*
X25614285Y809048D01*
X25661904Y761429D01*
X25757142Y713810D01*
X26138095Y713810D01*
X25233333Y1237619D02*
X24566666Y1237619D01*
X24995238Y237619D01*
M02*
