G04 #@! TF.FileFunction,Copper,L2,Bot,Signal*
%FSLAX46Y46*%
G04 Gerber Fmt 4.6, Leading zero omitted, Abs format (unit mm)*
G04 Created by KiCad (PCBNEW 4.0.7) date 06/03/18 15:51:18*
%MOMM*%
%LPD*%
G01*
G04 APERTURE LIST*
%ADD10C,0.100000*%
%ADD11C,0.150000*%
%ADD12R,1.600000X1.600000*%
%ADD13O,1.600000X1.600000*%
%ADD14R,3.000000X3.000000*%
%ADD15C,3.000000*%
%ADD16C,1.000000*%
%ADD17R,1.000000X1.000000*%
%ADD18R,1.800000X1.800000*%
%ADD19O,1.800000X1.800000*%
%ADD20R,0.900000X1.700000*%
%ADD21R,1.600000X1.000000*%
%ADD22C,1.600000*%
%ADD23R,2.000000X2.600000*%
%ADD24O,2.000000X2.600000*%
%ADD25R,1.700000X0.900000*%
%ADD26R,0.650000X1.060000*%
%ADD27C,2.600000*%
%ADD28C,1.500000*%
%ADD29C,0.250000*%
%ADD30C,0.500000*%
%ADD31C,0.750000*%
%ADD32C,1.000000*%
%ADD33C,2.000000*%
%ADD34C,0.254000*%
G04 APERTURE END LIST*
D10*
D11*
X1666666Y0D02*
G75*
G03X1666666Y0I-1666666J0D01*
G01*
X-2500000Y0D02*
X2500000Y0D01*
X0Y2500000D02*
X0Y-2500000D01*
D12*
X40005000Y31115000D03*
D13*
X6985000Y15875000D03*
X37465000Y31115000D03*
X9525000Y15875000D03*
X34925000Y31115000D03*
X12065000Y15875000D03*
X32385000Y31115000D03*
X14605000Y15875000D03*
X29845000Y31115000D03*
X17145000Y15875000D03*
X27305000Y31115000D03*
X19685000Y15875000D03*
X24765000Y31115000D03*
X22225000Y15875000D03*
X22225000Y31115000D03*
X24765000Y15875000D03*
X19685000Y31115000D03*
X27305000Y15875000D03*
X17145000Y31115000D03*
X29845000Y15875000D03*
X14605000Y31115000D03*
X32385000Y15875000D03*
X12065000Y31115000D03*
X34925000Y15875000D03*
X9525000Y31115000D03*
X37465000Y15875000D03*
X6985000Y31115000D03*
X40005000Y15875000D03*
X4445000Y31115000D03*
X4445000Y15875000D03*
D14*
X47625000Y40640000D03*
D15*
X52705000Y40640000D03*
D16*
X46355000Y31750000D03*
X47625000Y33020000D03*
D17*
X47625000Y30480000D03*
D18*
X46990000Y26670000D03*
D19*
X46990000Y24130000D03*
X46990000Y21590000D03*
D20*
X8562000Y23368000D03*
X5662000Y23368000D03*
D21*
X25908000Y22074000D03*
X25908000Y19074000D03*
X24765000Y9755000D03*
X24765000Y6755000D03*
X15494000Y12930000D03*
X15494000Y9930000D03*
X29464000Y19074000D03*
X29464000Y22074000D03*
D12*
X32766000Y21590000D03*
D22*
X32766000Y19590000D03*
D18*
X36830000Y21590000D03*
D19*
X44450000Y21590000D03*
D14*
X52705000Y7620000D03*
D15*
X47625000Y7620000D03*
X42545000Y7620000D03*
D23*
X26670000Y39370000D03*
D24*
X29210000Y39370000D03*
X31750000Y39370000D03*
X34290000Y39370000D03*
X36830000Y39370000D03*
D23*
X4445000Y39370000D03*
D24*
X6985000Y39370000D03*
X9525000Y39370000D03*
X12065000Y39370000D03*
X14605000Y39370000D03*
X17145000Y39370000D03*
X19685000Y39370000D03*
X22225000Y39370000D03*
D25*
X50292000Y23442000D03*
X50292000Y26342000D03*
X23368000Y22024000D03*
X23368000Y19124000D03*
D20*
X27760000Y10160000D03*
X30660000Y10160000D03*
D25*
X22225000Y9980000D03*
X22225000Y12880000D03*
D20*
X21918000Y27432000D03*
X24818000Y27432000D03*
X19505000Y2540000D03*
X22405000Y2540000D03*
D25*
X12954000Y12880000D03*
X12954000Y9980000D03*
X17272000Y36502000D03*
X17272000Y33602000D03*
X16764000Y42238000D03*
X16764000Y45138000D03*
X12192000Y36502000D03*
X12192000Y33602000D03*
X7112000Y36502000D03*
X7112000Y33602000D03*
D20*
X2106000Y20828000D03*
X5006000Y20828000D03*
D25*
X19304000Y42238000D03*
X19304000Y45138000D03*
X14224000Y42238000D03*
X14224000Y45138000D03*
X11684000Y42238000D03*
X11684000Y45138000D03*
X9144000Y42238000D03*
X9144000Y45138000D03*
X6604000Y42238000D03*
X6604000Y45138000D03*
D26*
X20005000Y7450000D03*
X20955000Y7450000D03*
X21905000Y7450000D03*
X21905000Y5250000D03*
X20005000Y5250000D03*
D20*
X23950000Y2540000D03*
X26850000Y2540000D03*
D27*
X5842000Y11176000D03*
D28*
X4064000Y35560000D03*
X22352000Y35560000D03*
X4572000Y28448000D03*
X1016000Y28448000D03*
D29*
X52705000Y25580000D02*
X52525000Y25580000D01*
D30*
X6985000Y15875000D02*
X6985000Y24511000D01*
X6985000Y24511000D02*
X5588000Y25908000D01*
X5588000Y25908000D02*
X4318000Y25908000D01*
X4318000Y25908000D02*
X3302000Y26924000D01*
X3302000Y26924000D02*
X3302000Y29972000D01*
X3302000Y29972000D02*
X2806002Y30467998D01*
X2806002Y30467998D02*
X2806002Y35560000D01*
X2806002Y35560000D02*
X4064000Y35560000D01*
X22352000Y35560000D02*
X22225000Y35687000D01*
X22225000Y35687000D02*
X22225000Y39370000D01*
X2806002Y35560000D02*
X2806002Y37731002D01*
X2806002Y37731002D02*
X4445000Y39370000D01*
X22352000Y39624000D02*
X22606000Y39370000D01*
X22606000Y39370000D02*
X22225000Y39370000D01*
X14224000Y45138000D02*
X14224000Y44196000D01*
X14224000Y44196000D02*
X14732000Y43688000D01*
X14732000Y43688000D02*
X19050000Y43688000D01*
X19050000Y43688000D02*
X19304000Y43942000D01*
X19304000Y43942000D02*
X19304000Y45138000D01*
X19685000Y39370000D02*
X19685000Y40005000D01*
X19685000Y40005000D02*
X21844000Y42164000D01*
X21844000Y42164000D02*
X21844000Y45138000D01*
X21844000Y45138000D02*
X21844000Y44958000D01*
X21844000Y44958000D02*
X21844000Y45138000D01*
X19304000Y45138000D02*
X21844000Y45138000D01*
X21844000Y45138000D02*
X30660000Y45138000D01*
X22225000Y12880000D02*
X30046000Y12880000D01*
X30046000Y12880000D02*
X30226000Y12700000D01*
D31*
X32766000Y19590000D02*
X36036000Y19590000D01*
X36036000Y19590000D02*
X37465000Y18161000D01*
X37465000Y18161000D02*
X37465000Y15875000D01*
X37465000Y15875000D02*
X37465000Y14605000D01*
X37465000Y14605000D02*
X35560000Y12700000D01*
X35560000Y12700000D02*
X30226000Y12700000D01*
X30226000Y12700000D02*
X29210000Y11684000D01*
X29210000Y11684000D02*
X29210000Y4318000D01*
X29210000Y4318000D02*
X31242000Y2286000D01*
X31242000Y2286000D02*
X51816000Y2286000D01*
X51816000Y2286000D02*
X52705000Y3175000D01*
X52705000Y3175000D02*
X52705000Y7620000D01*
D30*
X15494000Y9930000D02*
X20320000Y9930000D01*
X20320000Y9930000D02*
X20320000Y9906000D01*
X22225000Y12880000D02*
X21008000Y12880000D01*
X21008000Y12880000D02*
X20320000Y12192000D01*
X20320000Y12192000D02*
X20320000Y9906000D01*
X20320000Y9906000D02*
X20320000Y9144000D01*
X20320000Y9144000D02*
X20955000Y8509000D01*
X20955000Y8509000D02*
X20955000Y7450000D01*
X25908000Y19074000D02*
X29464000Y19074000D01*
D32*
X32766000Y19590000D02*
X29980000Y19590000D01*
X29980000Y19590000D02*
X29464000Y19074000D01*
X47625000Y33020000D02*
X47625000Y34417000D01*
X47625000Y34417000D02*
X41656000Y40386000D01*
X41656000Y40386000D02*
X41656000Y45138000D01*
X29210000Y39370000D02*
X29210000Y44196000D01*
X29210000Y44196000D02*
X30152000Y45138000D01*
X34290000Y39370000D02*
X34290000Y45138000D01*
X34290000Y45138000D02*
X34110000Y44958000D01*
X34110000Y44958000D02*
X34036000Y44958000D01*
X34036000Y44958000D02*
X34036000Y45138000D01*
X52705000Y40640000D02*
X52705000Y43053000D01*
X52705000Y43053000D02*
X50620000Y45138000D01*
X50620000Y45138000D02*
X41656000Y45138000D01*
X41656000Y45138000D02*
X34036000Y45138000D01*
X34036000Y45138000D02*
X30660000Y45138000D01*
X30660000Y45138000D02*
X30152000Y45138000D01*
D30*
X14224000Y45138000D02*
X11684000Y45138000D01*
X11684000Y45138000D02*
X9144000Y45138000D01*
X9144000Y45138000D02*
X6604000Y45138000D01*
X9525000Y45265000D02*
X9091000Y45265000D01*
D33*
X52705000Y40640000D02*
X54864000Y40640000D01*
X54864000Y40640000D02*
X57912000Y37592000D01*
X57912000Y37592000D02*
X57912000Y9144000D01*
X57912000Y9144000D02*
X56388000Y7620000D01*
X56388000Y7620000D02*
X52705000Y7620000D01*
D30*
X26850000Y2540000D02*
X26850000Y3122000D01*
D31*
X26850000Y3122000D02*
X24765000Y5207000D01*
X24765000Y5207000D02*
X24765000Y6755000D01*
D32*
X52705000Y7620000D02*
X52705000Y8255000D01*
D29*
X23900000Y6755000D02*
X24765000Y6755000D01*
D30*
X23495000Y6350000D02*
X23900000Y6755000D01*
X20955000Y6350000D02*
X23495000Y6350000D01*
X20955000Y7450000D02*
X20955000Y6350000D01*
D31*
X32385000Y31115000D02*
X32385000Y34925000D01*
X34290000Y36830000D02*
X34290000Y39370000D01*
X32385000Y34925000D02*
X34290000Y36830000D01*
X29845000Y31115000D02*
X29845000Y34925000D01*
X31750000Y36830000D02*
X31750000Y39370000D01*
X29845000Y34925000D02*
X31750000Y36830000D01*
D29*
X27305000Y31115000D02*
X27305000Y30480000D01*
D31*
X27305000Y30480000D02*
X28575000Y29210000D01*
X28575000Y29210000D02*
X41910000Y29210000D01*
X41910000Y29210000D02*
X42545000Y29845000D01*
X42545000Y29845000D02*
X42545000Y33020000D01*
X42545000Y33020000D02*
X41275000Y34290000D01*
X41275000Y34290000D02*
X38100000Y34290000D01*
X38100000Y34290000D02*
X36830000Y35560000D01*
X36830000Y35560000D02*
X36830000Y39370000D01*
D30*
X12954000Y12880000D02*
X15444000Y12880000D01*
X15444000Y12880000D02*
X15518000Y12954000D01*
X15518000Y12954000D02*
X17780000Y12954000D01*
X17780000Y12954000D02*
X19685000Y14859000D01*
X19685000Y14859000D02*
X19685000Y15875000D01*
X13004000Y12930000D02*
X12954000Y12880000D01*
D31*
X24765000Y31115000D02*
X24765000Y37465000D01*
X24765000Y37465000D02*
X26670000Y39370000D01*
D30*
X8562000Y23368000D02*
X22024000Y23368000D01*
X22024000Y23368000D02*
X23368000Y22024000D01*
X23368000Y22024000D02*
X23368000Y29972000D01*
X23368000Y29972000D02*
X22225000Y31115000D01*
X25908000Y22074000D02*
X23418000Y22074000D01*
X23418000Y22074000D02*
X23368000Y22024000D01*
X14605000Y31115000D02*
X14605000Y33147000D01*
X14605000Y33147000D02*
X14150000Y33602000D01*
X14150000Y33602000D02*
X12192000Y33602000D01*
X14605000Y31115000D02*
X14605000Y31189000D01*
X32385000Y15875000D02*
X32385000Y15621000D01*
X32385000Y15621000D02*
X30988000Y14224000D01*
X30988000Y14224000D02*
X21082000Y14224000D01*
X21082000Y14224000D02*
X18288000Y11430000D01*
X18288000Y11430000D02*
X11176000Y11430000D01*
X11176000Y11430000D02*
X10414000Y10668000D01*
X10414000Y10668000D02*
X10414000Y2540000D01*
X10414000Y2540000D02*
X11938000Y1016000D01*
X11938000Y1016000D02*
X20828000Y1016000D01*
X20828000Y1016000D02*
X21082000Y1270000D01*
X21082000Y1270000D02*
X21082000Y4173000D01*
X21082000Y4173000D02*
X20005000Y5250000D01*
X23368000Y19124000D02*
X23368000Y18288000D01*
X23368000Y18288000D02*
X24130000Y17526000D01*
X24130000Y17526000D02*
X31750000Y17526000D01*
X31750000Y17526000D02*
X32385000Y16891000D01*
X32385000Y16891000D02*
X32385000Y15875000D01*
D29*
X20005000Y5250000D02*
X20005000Y4760000D01*
D31*
X12065000Y31115000D02*
X12065000Y29210000D01*
X13970000Y27305000D02*
X22045000Y27305000D01*
X12065000Y29210000D02*
X13970000Y27305000D01*
D30*
X17272000Y33602000D02*
X17272000Y34036000D01*
X17272000Y34036000D02*
X16256000Y35052000D01*
X16256000Y35052000D02*
X10160000Y35052000D01*
X10160000Y35052000D02*
X9525000Y34417000D01*
X9525000Y34417000D02*
X9525000Y31115000D01*
X6985000Y31115000D02*
X6985000Y33475000D01*
X6985000Y33475000D02*
X7112000Y33602000D01*
D32*
X40005000Y15875000D02*
X40005000Y16891000D01*
X40005000Y16891000D02*
X39116000Y17780000D01*
X39116000Y17780000D02*
X39116000Y18542000D01*
X39116000Y18542000D02*
X36830000Y20828000D01*
X36830000Y20828000D02*
X36830000Y21590000D01*
X32766000Y21590000D02*
X29948000Y21590000D01*
X29948000Y21590000D02*
X29464000Y22074000D01*
X36830000Y21590000D02*
X32766000Y21590000D01*
X40132000Y16002000D02*
X40005000Y15875000D01*
D30*
X1053000Y44159000D02*
X1053000Y44233000D01*
X1053000Y44233000D02*
X3302000Y46482000D01*
X3302000Y46482000D02*
X16256000Y46482000D01*
X16256000Y46482000D02*
X16764000Y45974000D01*
X16764000Y45974000D02*
X16764000Y45138000D01*
X4445000Y31115000D02*
X4445000Y28575000D01*
X4445000Y28575000D02*
X4572000Y28448000D01*
X1016000Y28448000D02*
X508000Y28956000D01*
X508000Y28956000D02*
X508000Y43614000D01*
X508000Y43614000D02*
X1053000Y44159000D01*
X1053000Y44159000D02*
X1090000Y44196000D01*
X4445000Y31115000D02*
X4445000Y31369000D01*
X4445000Y15875000D02*
X4445000Y16129000D01*
D31*
X4445000Y16129000D02*
X5006000Y16690000D01*
X5006000Y16690000D02*
X5006000Y20828000D01*
D30*
X5006000Y20828000D02*
X5006000Y20775000D01*
X46355000Y31750000D02*
X45974000Y31750000D01*
D31*
X45974000Y31750000D02*
X41656000Y27432000D01*
X41656000Y27432000D02*
X24818000Y27432000D01*
D32*
X46990000Y26670000D02*
X46990000Y29845000D01*
X46990000Y29845000D02*
X47625000Y30480000D01*
X50292000Y26342000D02*
X47318000Y26342000D01*
X47318000Y26342000D02*
X46990000Y26670000D01*
D33*
X42545000Y7620000D02*
X42545000Y18161000D01*
X42545000Y18161000D02*
X41148000Y19558000D01*
X41148000Y19558000D02*
X41148000Y22352000D01*
X41148000Y22352000D02*
X42926000Y24130000D01*
X42926000Y24130000D02*
X46990000Y24130000D01*
X46990000Y21590000D02*
X44450000Y21590000D01*
X50292000Y23442000D02*
X50292000Y21590000D01*
X50292000Y21590000D02*
X50292000Y21844000D01*
X50292000Y21844000D02*
X50292000Y21590000D01*
X47625000Y40640000D02*
X47625000Y39243000D01*
X47625000Y39243000D02*
X54356000Y32512000D01*
X54356000Y32512000D02*
X54356000Y22860000D01*
X54356000Y22860000D02*
X53086000Y21590000D01*
X53086000Y21590000D02*
X50292000Y21590000D01*
X50292000Y21590000D02*
X46990000Y21590000D01*
D32*
X47625000Y40640000D02*
X47625000Y40259000D01*
D30*
X5662000Y23368000D02*
X4318000Y23368000D01*
X4318000Y23368000D02*
X3556000Y22606000D01*
X3556000Y22606000D02*
X3556000Y17780000D01*
X3556000Y17780000D02*
X2540000Y16764000D01*
X2540000Y16764000D02*
X2540000Y12446000D01*
X2540000Y12446000D02*
X3810000Y11176000D01*
X3810000Y11176000D02*
X5842000Y11176000D01*
D31*
X22225000Y9980000D02*
X22225000Y7770000D01*
D29*
X22225000Y7770000D02*
X21905000Y7450000D01*
D31*
X24765000Y9755000D02*
X22450000Y9755000D01*
D29*
X22450000Y9755000D02*
X22225000Y9980000D01*
D31*
X27760000Y10160000D02*
X25170000Y10160000D01*
D29*
X25170000Y10160000D02*
X24765000Y9755000D01*
D32*
X30660000Y10160000D02*
X30988000Y10160000D01*
D31*
X30988000Y10160000D02*
X37084000Y4064000D01*
X37084000Y4064000D02*
X44069000Y4064000D01*
X44069000Y4064000D02*
X47625000Y7620000D01*
D30*
X7112000Y36502000D02*
X8054000Y36502000D01*
X8054000Y36502000D02*
X9525000Y37973000D01*
X9525000Y37973000D02*
X9525000Y39370000D01*
X9144000Y38989000D02*
X9525000Y39370000D01*
X9652000Y39243000D02*
X9525000Y39370000D01*
X9525000Y39370000D02*
X9525000Y41857000D01*
X9525000Y41857000D02*
X9144000Y42238000D01*
X12192000Y36502000D02*
X12192000Y39243000D01*
X12192000Y39243000D02*
X12065000Y39370000D01*
X11758000Y39063000D02*
X12065000Y39370000D01*
X12192000Y39243000D02*
X12065000Y39370000D01*
X12065000Y39370000D02*
X12065000Y41857000D01*
X12065000Y41857000D02*
X11684000Y42238000D01*
X16764000Y42238000D02*
X14224000Y42238000D01*
X14732000Y39243000D02*
X14605000Y39370000D01*
X14605000Y39370000D02*
X14605000Y41857000D01*
X14605000Y41857000D02*
X14224000Y42238000D01*
X19304000Y42238000D02*
X19124000Y42238000D01*
X19124000Y42238000D02*
X17145000Y40259000D01*
X17145000Y40259000D02*
X17145000Y39370000D01*
X17272000Y36502000D02*
X17272000Y39243000D01*
X17272000Y39243000D02*
X17145000Y39370000D01*
X17272000Y39243000D02*
X17145000Y39370000D01*
X12954000Y9980000D02*
X12954000Y8636000D01*
X12954000Y8636000D02*
X14140000Y7450000D01*
X14140000Y7450000D02*
X20005000Y7450000D01*
X19505000Y2540000D02*
X19050000Y2540000D01*
X19050000Y2540000D02*
X18288000Y3302000D01*
X18288000Y3302000D02*
X18288000Y6604000D01*
X18288000Y6604000D02*
X19134000Y7450000D01*
X19134000Y7450000D02*
X20005000Y7450000D01*
D29*
X12954000Y9980000D02*
X13409000Y9980000D01*
D30*
X21905000Y5250000D02*
X21905000Y5019000D01*
X21905000Y5019000D02*
X22405000Y4519000D01*
X22405000Y4519000D02*
X22405000Y2540000D01*
X23950000Y2540000D02*
X22405000Y2540000D01*
D29*
X22405000Y2540000D02*
X23315000Y2540000D01*
X21770000Y5115000D02*
X21905000Y5250000D01*
D30*
X2106000Y20828000D02*
X2106000Y27252000D01*
X2106000Y27252000D02*
X2286000Y27432000D01*
X2286000Y27432000D02*
X2286000Y29464000D01*
X2286000Y29464000D02*
X1778000Y29972000D01*
X1778000Y29972000D02*
X1778000Y41402000D01*
X1778000Y41402000D02*
X2614000Y42238000D01*
X2614000Y42238000D02*
X6604000Y42238000D01*
X6985000Y39370000D02*
X6985000Y41857000D01*
X6985000Y41857000D02*
X6604000Y42238000D01*
D34*
G36*
X59309000Y127000D02*
X127000Y127000D01*
X127000Y27378155D01*
X230436Y27274539D01*
X739298Y27063241D01*
X1221000Y27062820D01*
X1221000Y22152669D01*
X1204559Y22142090D01*
X1059569Y21929890D01*
X1008560Y21678000D01*
X1008560Y19978000D01*
X1052838Y19742683D01*
X1191910Y19526559D01*
X1404110Y19381569D01*
X1656000Y19330560D01*
X2556000Y19330560D01*
X2671000Y19352199D01*
X2671000Y18146579D01*
X1914210Y17389790D01*
X1722367Y17102675D01*
X1712009Y17050603D01*
X1654999Y16764000D01*
X1655000Y16763995D01*
X1655000Y12446005D01*
X1654999Y12446000D01*
X1694458Y12247633D01*
X1722367Y12107325D01*
X1816857Y11965910D01*
X1914210Y11820210D01*
X3184208Y10550213D01*
X3184210Y10550210D01*
X3459138Y10366510D01*
X3471325Y10358367D01*
X3810000Y10290999D01*
X3810005Y10291000D01*
X4114001Y10291000D01*
X4200630Y10081342D01*
X4744479Y9536543D01*
X5455416Y9241337D01*
X6225207Y9240665D01*
X6936658Y9534630D01*
X7481457Y10078479D01*
X7776663Y10789416D01*
X7777335Y11559207D01*
X7483370Y12270658D01*
X6939521Y12815457D01*
X6228584Y13110663D01*
X5458793Y13111335D01*
X4747342Y12817370D01*
X4202543Y12273521D01*
X4132571Y12105009D01*
X3425000Y12812580D01*
X3425000Y14840124D01*
X3430302Y14832189D01*
X3895849Y14521120D01*
X4445000Y14411887D01*
X4994151Y14521120D01*
X5459698Y14832189D01*
X5715000Y15214275D01*
X5970302Y14832189D01*
X6435849Y14521120D01*
X6985000Y14411887D01*
X7534151Y14521120D01*
X7999698Y14832189D01*
X8255000Y15214275D01*
X8510302Y14832189D01*
X8975849Y14521120D01*
X9525000Y14411887D01*
X10074151Y14521120D01*
X10539698Y14832189D01*
X10795000Y15214275D01*
X11050302Y14832189D01*
X11515849Y14521120D01*
X12065000Y14411887D01*
X12614151Y14521120D01*
X13079698Y14832189D01*
X13335000Y15214275D01*
X13590302Y14832189D01*
X14055849Y14521120D01*
X14605000Y14411887D01*
X15154151Y14521120D01*
X15619698Y14832189D01*
X15875000Y15214275D01*
X16130302Y14832189D01*
X16595849Y14521120D01*
X17145000Y14411887D01*
X17694151Y14521120D01*
X18159698Y14832189D01*
X18415000Y15214275D01*
X18564682Y14990261D01*
X17413420Y13839000D01*
X16785400Y13839000D01*
X16758090Y13881441D01*
X16545890Y14026431D01*
X16294000Y14077440D01*
X14694000Y14077440D01*
X14458683Y14033162D01*
X14242559Y13894090D01*
X14198212Y13829186D01*
X14055890Y13926431D01*
X13804000Y13977440D01*
X12104000Y13977440D01*
X11868683Y13933162D01*
X11652559Y13794090D01*
X11507569Y13581890D01*
X11456560Y13330000D01*
X11456560Y12430000D01*
X11478199Y12315000D01*
X11176005Y12315000D01*
X11176000Y12315001D01*
X10893516Y12258810D01*
X10837325Y12247633D01*
X10550210Y12055790D01*
X10550208Y12055787D01*
X9788210Y11293790D01*
X9596367Y11006675D01*
X9596367Y11006674D01*
X9528999Y10668000D01*
X9529000Y10667995D01*
X9529000Y2540005D01*
X9528999Y2540000D01*
X9585190Y2257516D01*
X9596367Y2201325D01*
X9729151Y2002599D01*
X9788210Y1914210D01*
X11312208Y390213D01*
X11312210Y390210D01*
X11599325Y198367D01*
X11938000Y131000D01*
X20827995Y131000D01*
X20828000Y130999D01*
X21110484Y187190D01*
X21166675Y198367D01*
X21453790Y390210D01*
X21453791Y390211D01*
X21707787Y644208D01*
X21707790Y644210D01*
X21899633Y931325D01*
X21923046Y1049031D01*
X21955000Y1042560D01*
X22855000Y1042560D01*
X23090317Y1086838D01*
X23176653Y1142394D01*
X23248110Y1093569D01*
X23500000Y1042560D01*
X24400000Y1042560D01*
X24635317Y1086838D01*
X24851441Y1225910D01*
X24996431Y1438110D01*
X25047440Y1690000D01*
X25047440Y2254250D01*
X25765000Y2254250D01*
X25765000Y1563690D01*
X25861673Y1330301D01*
X26040302Y1151673D01*
X26273691Y1055000D01*
X26564250Y1055000D01*
X26723000Y1213750D01*
X26723000Y2413000D01*
X26977000Y2413000D01*
X26977000Y1213750D01*
X27135750Y1055000D01*
X27426309Y1055000D01*
X27659698Y1151673D01*
X27838327Y1330301D01*
X27935000Y1563690D01*
X27935000Y2254250D01*
X27776250Y2413000D01*
X26977000Y2413000D01*
X26723000Y2413000D01*
X25923750Y2413000D01*
X25765000Y2254250D01*
X25047440Y2254250D01*
X25047440Y3390000D01*
X25023674Y3516310D01*
X25765000Y3516310D01*
X25765000Y2825750D01*
X25923750Y2667000D01*
X26723000Y2667000D01*
X26723000Y3866250D01*
X26977000Y3866250D01*
X26977000Y2667000D01*
X27776250Y2667000D01*
X27935000Y2825750D01*
X27935000Y3516310D01*
X27838327Y3749699D01*
X27659698Y3928327D01*
X27426309Y4025000D01*
X27135750Y4025000D01*
X26977000Y3866250D01*
X26723000Y3866250D01*
X26564250Y4025000D01*
X26273691Y4025000D01*
X26040302Y3928327D01*
X25861673Y3749699D01*
X25765000Y3516310D01*
X25023674Y3516310D01*
X25003162Y3625317D01*
X24864090Y3841441D01*
X24651890Y3986431D01*
X24400000Y4037440D01*
X23500000Y4037440D01*
X23290000Y3997926D01*
X23290000Y4518995D01*
X23290001Y4519000D01*
X23222633Y4857674D01*
X23222633Y4857675D01*
X23030790Y5144790D01*
X23030787Y5144792D01*
X22877440Y5298139D01*
X22877440Y5780000D01*
X22833162Y6015317D01*
X22694090Y6231441D01*
X22518768Y6351233D01*
X22681441Y6455910D01*
X22690555Y6469250D01*
X23330000Y6469250D01*
X23330000Y6128691D01*
X23426673Y5895302D01*
X23605301Y5716673D01*
X23838690Y5620000D01*
X24479250Y5620000D01*
X24638000Y5778750D01*
X24638000Y6628000D01*
X24892000Y6628000D01*
X24892000Y5778750D01*
X25050750Y5620000D01*
X25691310Y5620000D01*
X25924699Y5716673D01*
X26103327Y5895302D01*
X26200000Y6128691D01*
X26200000Y6469250D01*
X26041250Y6628000D01*
X24892000Y6628000D01*
X24638000Y6628000D01*
X23488750Y6628000D01*
X23330000Y6469250D01*
X22690555Y6469250D01*
X22826431Y6668110D01*
X22877440Y6920000D01*
X22877440Y7014570D01*
X22939178Y7055822D01*
X23156660Y7381309D01*
X23330000Y7381309D01*
X23330000Y7040750D01*
X23488750Y6882000D01*
X24638000Y6882000D01*
X24638000Y7731250D01*
X24892000Y7731250D01*
X24892000Y6882000D01*
X26041250Y6882000D01*
X26200000Y7040750D01*
X26200000Y7381309D01*
X26103327Y7614698D01*
X25924699Y7793327D01*
X25691310Y7890000D01*
X25050750Y7890000D01*
X24892000Y7731250D01*
X24638000Y7731250D01*
X24479250Y7890000D01*
X23838690Y7890000D01*
X23605301Y7793327D01*
X23426673Y7614698D01*
X23330000Y7381309D01*
X23156660Y7381309D01*
X23158118Y7383490D01*
X23235000Y7770000D01*
X23235000Y8745000D01*
X23586614Y8745000D01*
X23713110Y8658569D01*
X23965000Y8607560D01*
X25565000Y8607560D01*
X25800317Y8651838D01*
X26016441Y8790910D01*
X26161431Y9003110D01*
X26191177Y9150000D01*
X26692666Y9150000D01*
X26706838Y9074683D01*
X26845910Y8858559D01*
X27058110Y8713569D01*
X27310000Y8662560D01*
X28210000Y8662560D01*
X28445317Y8706838D01*
X28661441Y8845910D01*
X28806431Y9058110D01*
X28857440Y9310000D01*
X28857440Y10160000D01*
X29525000Y10160000D01*
X29562560Y9971174D01*
X29562560Y9310000D01*
X29606838Y9074683D01*
X29745910Y8858559D01*
X29958110Y8713569D01*
X30210000Y8662560D01*
X31057084Y8662560D01*
X36369822Y3349822D01*
X36697490Y3130882D01*
X37084000Y3054000D01*
X44069000Y3054000D01*
X44455510Y3130882D01*
X44783178Y3349822D01*
X47000802Y5567446D01*
X47198459Y5485372D01*
X48047815Y5484630D01*
X48832800Y5808980D01*
X49433909Y6409041D01*
X49759628Y7193459D01*
X49759750Y7334250D01*
X50570000Y7334250D01*
X50570000Y5993690D01*
X50666673Y5760301D01*
X50845302Y5581673D01*
X51078691Y5485000D01*
X52419250Y5485000D01*
X52578000Y5643750D01*
X52578000Y7493000D01*
X52832000Y7493000D01*
X52832000Y5643750D01*
X52990750Y5485000D01*
X54331309Y5485000D01*
X54564698Y5581673D01*
X54743327Y5760301D01*
X54840000Y5993690D01*
X54840000Y7334250D01*
X54681250Y7493000D01*
X52832000Y7493000D01*
X52578000Y7493000D01*
X50728750Y7493000D01*
X50570000Y7334250D01*
X49759750Y7334250D01*
X49760370Y8042815D01*
X49436020Y8827800D01*
X49018240Y9246310D01*
X50570000Y9246310D01*
X50570000Y7905750D01*
X50728750Y7747000D01*
X52578000Y7747000D01*
X52578000Y9596250D01*
X52832000Y9596250D01*
X52832000Y7747000D01*
X54681250Y7747000D01*
X54840000Y7905750D01*
X54840000Y9246310D01*
X54743327Y9479699D01*
X54564698Y9658327D01*
X54331309Y9755000D01*
X52990750Y9755000D01*
X52832000Y9596250D01*
X52578000Y9596250D01*
X52419250Y9755000D01*
X51078691Y9755000D01*
X50845302Y9658327D01*
X50666673Y9479699D01*
X50570000Y9246310D01*
X49018240Y9246310D01*
X48835959Y9428909D01*
X48051541Y9754628D01*
X47202185Y9755370D01*
X46417200Y9431020D01*
X45816091Y8830959D01*
X45490372Y8046541D01*
X45489630Y7197185D01*
X45572725Y6996081D01*
X43650644Y5074000D01*
X37502356Y5074000D01*
X32050159Y10526197D01*
X32036603Y10594346D01*
X31790566Y10962566D01*
X31757440Y10984700D01*
X31757440Y11010000D01*
X31713162Y11245317D01*
X31574090Y11461441D01*
X31361890Y11606431D01*
X31110000Y11657440D01*
X30210000Y11657440D01*
X29974683Y11613162D01*
X29758559Y11474090D01*
X29613569Y11261890D01*
X29562560Y11010000D01*
X29562560Y10348826D01*
X29525000Y10160000D01*
X28857440Y10160000D01*
X28857440Y11010000D01*
X28813162Y11245317D01*
X28674090Y11461441D01*
X28461890Y11606431D01*
X28210000Y11657440D01*
X27310000Y11657440D01*
X27074683Y11613162D01*
X26858559Y11474090D01*
X26713569Y11261890D01*
X26694961Y11170000D01*
X25170000Y11170000D01*
X24783490Y11093118D01*
X24498119Y10902440D01*
X23965000Y10902440D01*
X23729683Y10858162D01*
X23605493Y10778248D01*
X23539090Y10881441D01*
X23326890Y11026431D01*
X23075000Y11077440D01*
X21375000Y11077440D01*
X21139683Y11033162D01*
X20923559Y10894090D01*
X20778569Y10681890D01*
X20727560Y10430000D01*
X20727560Y9530000D01*
X20771838Y9294683D01*
X20910910Y9078559D01*
X21123110Y8933569D01*
X21215000Y8914961D01*
X21215000Y8589250D01*
X21082000Y8456250D01*
X21082000Y8375949D01*
X20983569Y8231890D01*
X20955824Y8094880D01*
X20933162Y8215317D01*
X20828000Y8378743D01*
X20828000Y8456250D01*
X20669250Y8615000D01*
X20503690Y8615000D01*
X20466829Y8599732D01*
X20330000Y8627440D01*
X19680000Y8627440D01*
X19444683Y8583162D01*
X19228559Y8444090D01*
X19154021Y8335000D01*
X19134005Y8335000D01*
X19134000Y8335001D01*
X19133995Y8335000D01*
X14506579Y8335000D01*
X13934470Y8907110D01*
X14039317Y8926838D01*
X14197408Y9028567D01*
X14334301Y8891673D01*
X14567690Y8795000D01*
X15208250Y8795000D01*
X15367000Y8953750D01*
X15367000Y9803000D01*
X15621000Y9803000D01*
X15621000Y8953750D01*
X15779750Y8795000D01*
X16420310Y8795000D01*
X16653699Y8891673D01*
X16832327Y9070302D01*
X16929000Y9303691D01*
X16929000Y9644250D01*
X16770250Y9803000D01*
X15621000Y9803000D01*
X15367000Y9803000D01*
X15347000Y9803000D01*
X15347000Y10057000D01*
X15367000Y10057000D01*
X15367000Y10077000D01*
X15621000Y10077000D01*
X15621000Y10057000D01*
X16770250Y10057000D01*
X16929000Y10215750D01*
X16929000Y10545000D01*
X18287995Y10545000D01*
X18288000Y10544999D01*
X18593610Y10605790D01*
X18626675Y10612367D01*
X18913790Y10804210D01*
X18913791Y10804211D01*
X20862577Y12752998D01*
X20898748Y12752998D01*
X20740000Y12594250D01*
X20740000Y12303691D01*
X20836673Y12070302D01*
X21015301Y11891673D01*
X21248690Y11795000D01*
X21939250Y11795000D01*
X22098000Y11953750D01*
X22098000Y12753000D01*
X22352000Y12753000D01*
X22352000Y11953750D01*
X22510750Y11795000D01*
X23201310Y11795000D01*
X23434699Y11891673D01*
X23613327Y12070302D01*
X23710000Y12303691D01*
X23710000Y12594250D01*
X23551250Y12753000D01*
X22352000Y12753000D01*
X22098000Y12753000D01*
X22078000Y12753000D01*
X22078000Y13007000D01*
X22098000Y13007000D01*
X22098000Y13027000D01*
X22352000Y13027000D01*
X22352000Y13007000D01*
X23551250Y13007000D01*
X23710000Y13165750D01*
X23710000Y13339000D01*
X30987995Y13339000D01*
X30988000Y13338999D01*
X31270484Y13395190D01*
X31326675Y13406367D01*
X31613790Y13598210D01*
X31613791Y13598211D01*
X32438011Y14422432D01*
X32934151Y14521120D01*
X33399698Y14832189D01*
X33655000Y15214275D01*
X33910302Y14832189D01*
X34375849Y14521120D01*
X34925000Y14411887D01*
X35474151Y14521120D01*
X35939698Y14832189D01*
X36209986Y15236703D01*
X36312611Y15019866D01*
X36727577Y14643959D01*
X37115961Y14483096D01*
X37338000Y14605085D01*
X37338000Y15748000D01*
X37318000Y15748000D01*
X37318000Y16002000D01*
X37338000Y16002000D01*
X37338000Y17144915D01*
X37115961Y17266904D01*
X36727577Y17106041D01*
X36312611Y16730134D01*
X36209986Y16513297D01*
X35939698Y16917811D01*
X35474151Y17228880D01*
X34925000Y17338113D01*
X34375849Y17228880D01*
X33910302Y16917811D01*
X33655000Y16535725D01*
X33399698Y16917811D01*
X33243970Y17021865D01*
X33202634Y17229674D01*
X33095648Y17389790D01*
X33010790Y17516790D01*
X33010787Y17516792D01*
X32375790Y18151790D01*
X32348204Y18170222D01*
X32202231Y18267758D01*
X32549223Y18143035D01*
X33119454Y18170222D01*
X33520005Y18336136D01*
X33594139Y18582255D01*
X32766000Y19410395D01*
X31937861Y18582255D01*
X32004706Y18360336D01*
X31750000Y18411001D01*
X31749995Y18411000D01*
X30883802Y18411000D01*
X30899000Y18447691D01*
X30899000Y18788250D01*
X30740250Y18947000D01*
X29591000Y18947000D01*
X29591000Y18927000D01*
X29337000Y18927000D01*
X29337000Y18947000D01*
X28187750Y18947000D01*
X28029000Y18788250D01*
X28029000Y18447691D01*
X28044198Y18411000D01*
X27327802Y18411000D01*
X27343000Y18447691D01*
X27343000Y18788250D01*
X27184250Y18947000D01*
X26035000Y18947000D01*
X26035000Y18927000D01*
X25781000Y18927000D01*
X25781000Y18947000D01*
X25761000Y18947000D01*
X25761000Y19201000D01*
X25781000Y19201000D01*
X25781000Y20050250D01*
X26035000Y20050250D01*
X26035000Y19201000D01*
X27184250Y19201000D01*
X27343000Y19359750D01*
X27343000Y19700309D01*
X28029000Y19700309D01*
X28029000Y19359750D01*
X28187750Y19201000D01*
X29337000Y19201000D01*
X29337000Y20050250D01*
X29591000Y20050250D01*
X29591000Y19201000D01*
X30740250Y19201000D01*
X30899000Y19359750D01*
X30899000Y19700309D01*
X30802327Y19933698D01*
X30623699Y20112327D01*
X30390310Y20209000D01*
X29749750Y20209000D01*
X29591000Y20050250D01*
X29337000Y20050250D01*
X29178250Y20209000D01*
X28537690Y20209000D01*
X28304301Y20112327D01*
X28125673Y19933698D01*
X28029000Y19700309D01*
X27343000Y19700309D01*
X27246327Y19933698D01*
X27067699Y20112327D01*
X26834310Y20209000D01*
X26193750Y20209000D01*
X26035000Y20050250D01*
X25781000Y20050250D01*
X25622250Y20209000D01*
X24981690Y20209000D01*
X24748301Y20112327D01*
X24669808Y20033833D01*
X24469890Y20170431D01*
X24218000Y20221440D01*
X22518000Y20221440D01*
X22282683Y20177162D01*
X22066559Y20038090D01*
X21921569Y19825890D01*
X21870560Y19574000D01*
X21870560Y18674000D01*
X21914838Y18438683D01*
X22053910Y18222559D01*
X22266110Y18077569D01*
X22518000Y18026560D01*
X22535004Y18026560D01*
X22550367Y17949325D01*
X22690611Y17739434D01*
X22742210Y17662210D01*
X23504208Y16900213D01*
X23504210Y16900210D01*
X23666213Y16791964D01*
X23495000Y16535725D01*
X23239698Y16917811D01*
X22774151Y17228880D01*
X22225000Y17338113D01*
X21675849Y17228880D01*
X21210302Y16917811D01*
X20955000Y16535725D01*
X20699698Y16917811D01*
X20234151Y17228880D01*
X19685000Y17338113D01*
X19135849Y17228880D01*
X18670302Y16917811D01*
X18415000Y16535725D01*
X18159698Y16917811D01*
X17694151Y17228880D01*
X17145000Y17338113D01*
X16595849Y17228880D01*
X16130302Y16917811D01*
X15875000Y16535725D01*
X15619698Y16917811D01*
X15154151Y17228880D01*
X14605000Y17338113D01*
X14055849Y17228880D01*
X13590302Y16917811D01*
X13335000Y16535725D01*
X13079698Y16917811D01*
X12614151Y17228880D01*
X12065000Y17338113D01*
X11515849Y17228880D01*
X11050302Y16917811D01*
X10795000Y16535725D01*
X10539698Y16917811D01*
X10074151Y17228880D01*
X9525000Y17338113D01*
X8975849Y17228880D01*
X8510302Y16917811D01*
X8255000Y16535725D01*
X7999698Y16917811D01*
X7870000Y17004473D01*
X7870000Y21919566D01*
X8112000Y21870560D01*
X9012000Y21870560D01*
X9247317Y21914838D01*
X9463441Y22053910D01*
X9608431Y22266110D01*
X9652352Y22483000D01*
X21657420Y22483000D01*
X21870560Y22269860D01*
X21870560Y21574000D01*
X21914838Y21338683D01*
X22053910Y21122559D01*
X22266110Y20977569D01*
X22518000Y20926560D01*
X24218000Y20926560D01*
X24453317Y20970838D01*
X24665826Y21107584D01*
X24856110Y20977569D01*
X25108000Y20926560D01*
X26708000Y20926560D01*
X26943317Y20970838D01*
X27159441Y21109910D01*
X27304431Y21322110D01*
X27355440Y21574000D01*
X27355440Y22574000D01*
X27311162Y22809317D01*
X27172090Y23025441D01*
X26959890Y23170431D01*
X26708000Y23221440D01*
X25108000Y23221440D01*
X24872683Y23177162D01*
X24656559Y23038090D01*
X24612212Y22973186D01*
X24469890Y23070431D01*
X24253000Y23114352D01*
X24253000Y25957848D01*
X24368000Y25934560D01*
X25268000Y25934560D01*
X25503317Y25978838D01*
X25719441Y26117910D01*
X25864431Y26330110D01*
X25883039Y26422000D01*
X41656000Y26422000D01*
X42042510Y26498882D01*
X42370178Y26717822D01*
X45960920Y30308564D01*
X45941397Y30279346D01*
X45855000Y29845000D01*
X45855000Y28173222D01*
X45854683Y28173162D01*
X45638559Y28034090D01*
X45493569Y27821890D01*
X45442560Y27570000D01*
X45442560Y25770000D01*
X45443501Y25765000D01*
X42926005Y25765000D01*
X42926000Y25765001D01*
X42381454Y25656683D01*
X42300313Y25640543D01*
X41769880Y25286120D01*
X41769878Y25286117D01*
X39991880Y23508120D01*
X39637457Y22977688D01*
X39512999Y22352000D01*
X39513000Y22351995D01*
X39513000Y19750132D01*
X38377440Y20885692D01*
X38377440Y22490000D01*
X38333162Y22725317D01*
X38194090Y22941441D01*
X37981890Y23086431D01*
X37730000Y23137440D01*
X35930000Y23137440D01*
X35694683Y23093162D01*
X35478559Y22954090D01*
X35333569Y22741890D01*
X35330149Y22725000D01*
X34105018Y22725000D01*
X34030090Y22841441D01*
X33817890Y22986431D01*
X33566000Y23037440D01*
X31966000Y23037440D01*
X31730683Y22993162D01*
X31514559Y22854090D01*
X31426356Y22725000D01*
X30883027Y22725000D01*
X30867162Y22809317D01*
X30728090Y23025441D01*
X30515890Y23170431D01*
X30264000Y23221440D01*
X28664000Y23221440D01*
X28428683Y23177162D01*
X28212559Y23038090D01*
X28067569Y22825890D01*
X28016560Y22574000D01*
X28016560Y21574000D01*
X28060838Y21338683D01*
X28199910Y21122559D01*
X28412110Y20977569D01*
X28664000Y20926560D01*
X29006308Y20926560D01*
X29145434Y20787434D01*
X29513654Y20541397D01*
X29948000Y20455000D01*
X31426982Y20455000D01*
X31501910Y20338559D01*
X31508548Y20334023D01*
X31319035Y19806777D01*
X31346222Y19236546D01*
X31512136Y18835995D01*
X31758255Y18761861D01*
X32586395Y19590000D01*
X32572252Y19604142D01*
X32751858Y19783747D01*
X32766000Y19769605D01*
X32780143Y19783747D01*
X32959748Y19604142D01*
X32945605Y19590000D01*
X33773745Y18761861D01*
X34019864Y18835995D01*
X34212965Y19373223D01*
X34185778Y19943454D01*
X34023616Y20334947D01*
X34105644Y20455000D01*
X35326778Y20455000D01*
X35326838Y20454683D01*
X35465910Y20238559D01*
X35678110Y20093569D01*
X35930000Y20042560D01*
X36015991Y20042560D01*
X36027434Y20025434D01*
X37981000Y18071868D01*
X37981000Y17780000D01*
X38067397Y17345654D01*
X38265959Y17048486D01*
X38202423Y17106041D01*
X37814039Y17266904D01*
X37592000Y17144915D01*
X37592000Y16002000D01*
X37612000Y16002000D01*
X37612000Y15748000D01*
X37592000Y15748000D01*
X37592000Y14605085D01*
X37814039Y14483096D01*
X38202423Y14643959D01*
X38617389Y15019866D01*
X38720014Y15236703D01*
X38990302Y14832189D01*
X39455849Y14521120D01*
X40005000Y14411887D01*
X40554151Y14521120D01*
X40910000Y14758891D01*
X40910000Y9004565D01*
X40736091Y8830959D01*
X40410372Y8046541D01*
X40409630Y7197185D01*
X40733980Y6412200D01*
X41334041Y5811091D01*
X42118459Y5485372D01*
X42967815Y5484630D01*
X43752800Y5808980D01*
X44353909Y6409041D01*
X44679628Y7193459D01*
X44680370Y8042815D01*
X44356020Y8827800D01*
X44180000Y9004127D01*
X44180000Y18161000D01*
X44055543Y18786687D01*
X43701120Y19317120D01*
X43701117Y19317122D01*
X42783000Y20235240D01*
X42783000Y21674760D01*
X42843992Y21735752D01*
X42815000Y21590000D01*
X42939457Y20964313D01*
X43293880Y20433880D01*
X43824313Y20079457D01*
X44450000Y19955000D01*
X53085995Y19955000D01*
X53086000Y19954999D01*
X53711688Y20079457D01*
X54242120Y20433880D01*
X55512117Y21703878D01*
X55512120Y21703880D01*
X55828528Y22177419D01*
X55866543Y22234312D01*
X55991000Y22860000D01*
X55991000Y32512000D01*
X55866543Y33137687D01*
X55512120Y33668120D01*
X55512117Y33668122D01*
X50054210Y39126030D01*
X51370635Y39126030D01*
X51530418Y38807261D01*
X52321187Y38497277D01*
X53170387Y38513503D01*
X53879582Y38807261D01*
X54039365Y39126030D01*
X52705000Y40460395D01*
X51370635Y39126030D01*
X50054210Y39126030D01*
X49772440Y39407800D01*
X49772440Y41023813D01*
X50562277Y41023813D01*
X50578503Y40174613D01*
X50872261Y39465418D01*
X51191030Y39305635D01*
X52525395Y40640000D01*
X52884605Y40640000D01*
X54218970Y39305635D01*
X54537739Y39465418D01*
X54847723Y40256187D01*
X54831497Y41105387D01*
X54537739Y41814582D01*
X54218970Y41974365D01*
X52884605Y40640000D01*
X52525395Y40640000D01*
X51191030Y41974365D01*
X50872261Y41814582D01*
X50562277Y41023813D01*
X49772440Y41023813D01*
X49772440Y42140000D01*
X49769812Y42153970D01*
X51370635Y42153970D01*
X52705000Y40819605D01*
X54039365Y42153970D01*
X53879582Y42472739D01*
X53088813Y42782723D01*
X52239613Y42766497D01*
X51530418Y42472739D01*
X51370635Y42153970D01*
X49769812Y42153970D01*
X49728162Y42375317D01*
X49589090Y42591441D01*
X49376890Y42736431D01*
X49125000Y42787440D01*
X46125000Y42787440D01*
X45889683Y42743162D01*
X45673559Y42604090D01*
X45528569Y42391890D01*
X45477560Y42140000D01*
X45477560Y39140000D01*
X45521838Y38904683D01*
X45660910Y38688559D01*
X45873110Y38543569D01*
X46125000Y38492560D01*
X46197814Y38492560D01*
X46468880Y38086880D01*
X52721000Y31834761D01*
X52721000Y26336817D01*
X52705000Y26340000D01*
X52525000Y26340000D01*
X52234161Y26282148D01*
X51987599Y26117401D01*
X51822852Y25870839D01*
X51765000Y25580000D01*
X51822852Y25289161D01*
X51987599Y25042599D01*
X52234161Y24877852D01*
X52525000Y24820000D01*
X52705000Y24820000D01*
X52721000Y24823183D01*
X52721000Y23537239D01*
X52408760Y23225000D01*
X51927000Y23225000D01*
X51927000Y23442000D01*
X51802543Y24067687D01*
X51448120Y24598120D01*
X50917687Y24952543D01*
X50292000Y25077000D01*
X49666313Y24952543D01*
X49135880Y24598120D01*
X48781457Y24067687D01*
X48657000Y23442000D01*
X48657000Y23225000D01*
X48313913Y23225000D01*
X48500543Y23504313D01*
X48625000Y24130000D01*
X48500543Y24755687D01*
X48198986Y25207000D01*
X50292000Y25207000D01*
X50480826Y25244560D01*
X51142000Y25244560D01*
X51377317Y25288838D01*
X51593441Y25427910D01*
X51738431Y25640110D01*
X51789440Y25892000D01*
X51789440Y26792000D01*
X51745162Y27027317D01*
X51606090Y27243441D01*
X51393890Y27388431D01*
X51142000Y27439440D01*
X50480826Y27439440D01*
X50292000Y27477000D01*
X48537440Y27477000D01*
X48537440Y27570000D01*
X48493162Y27805317D01*
X48354090Y28021441D01*
X48141890Y28166431D01*
X48125000Y28169851D01*
X48125000Y29332560D01*
X48360317Y29376838D01*
X48576441Y29515910D01*
X48721431Y29728110D01*
X48772440Y29980000D01*
X48772440Y30980000D01*
X48728162Y31215317D01*
X48589090Y31431441D01*
X48376890Y31576431D01*
X48125000Y31627440D01*
X47489894Y31627440D01*
X47490108Y31872606D01*
X47930375Y31903783D01*
X48198352Y32014783D01*
X48235499Y32229896D01*
X47625000Y32840395D01*
X47610858Y32826252D01*
X47431253Y33005857D01*
X47445395Y33020000D01*
X47804605Y33020000D01*
X48415104Y32409501D01*
X48630217Y32446648D01*
X48773112Y32874972D01*
X48741217Y33325375D01*
X48630217Y33593352D01*
X48415104Y33630499D01*
X47804605Y33020000D01*
X47445395Y33020000D01*
X46834896Y33630499D01*
X46619783Y33593352D01*
X46476888Y33165028D01*
X46496727Y32884877D01*
X46130225Y32885197D01*
X45712914Y32712767D01*
X45707034Y32706897D01*
X45587490Y32683118D01*
X45259822Y32464178D01*
X43555000Y30759356D01*
X43555000Y33020000D01*
X43478118Y33406510D01*
X43259178Y33734178D01*
X43183252Y33810104D01*
X47014501Y33810104D01*
X47625000Y33199605D01*
X48235499Y33810104D01*
X48198352Y34025217D01*
X47770028Y34168112D01*
X47319625Y34136217D01*
X47051648Y34025217D01*
X47014501Y33810104D01*
X43183252Y33810104D01*
X41989178Y35004178D01*
X41661510Y35223118D01*
X41275000Y35300000D01*
X38518356Y35300000D01*
X37840000Y35978356D01*
X37840000Y37778337D01*
X37986120Y37875971D01*
X38340543Y38406404D01*
X38465000Y39032091D01*
X38465000Y39707909D01*
X38340543Y40333596D01*
X37986120Y40864029D01*
X37455687Y41218452D01*
X36830000Y41342909D01*
X36204313Y41218452D01*
X35673880Y40864029D01*
X35546781Y40673812D01*
X35356317Y40915922D01*
X34798355Y41229144D01*
X34670434Y41260124D01*
X34417000Y41140777D01*
X34417000Y39497000D01*
X34437000Y39497000D01*
X34437000Y39243000D01*
X34417000Y39243000D01*
X34417000Y37599223D01*
X34670434Y37479876D01*
X34798355Y37510856D01*
X35356317Y37824078D01*
X35546781Y38066188D01*
X35673880Y37875971D01*
X35820000Y37778337D01*
X35820000Y35560000D01*
X35896882Y35173490D01*
X36115822Y34845822D01*
X37385822Y33575822D01*
X37713490Y33356882D01*
X38100000Y33280000D01*
X40856644Y33280000D01*
X41535000Y32601644D01*
X41535000Y30263356D01*
X41491644Y30220000D01*
X41433202Y30220000D01*
X41452440Y30315000D01*
X41452440Y31915000D01*
X41408162Y32150317D01*
X41269090Y32366441D01*
X41056890Y32511431D01*
X40805000Y32562440D01*
X39205000Y32562440D01*
X38969683Y32518162D01*
X38753559Y32379090D01*
X38608569Y32166890D01*
X38577185Y32011911D01*
X38479698Y32157811D01*
X38014151Y32468880D01*
X37465000Y32578113D01*
X36915849Y32468880D01*
X36450302Y32157811D01*
X36195000Y31775725D01*
X35939698Y32157811D01*
X35474151Y32468880D01*
X34925000Y32578113D01*
X34375849Y32468880D01*
X33910302Y32157811D01*
X33640014Y31753297D01*
X33537389Y31970134D01*
X33122423Y32346041D01*
X32734039Y32506904D01*
X32512000Y32384915D01*
X32512000Y31242000D01*
X32532000Y31242000D01*
X32532000Y30988000D01*
X32512000Y30988000D01*
X32512000Y30968000D01*
X32258000Y30968000D01*
X32258000Y30988000D01*
X32238000Y30988000D01*
X32238000Y31242000D01*
X32258000Y31242000D01*
X32258000Y32384915D01*
X32035961Y32506904D01*
X31647577Y32346041D01*
X31232611Y31970134D01*
X31129986Y31753297D01*
X30859698Y32157811D01*
X30855000Y32160950D01*
X30855000Y34506644D01*
X32464178Y36115822D01*
X32683118Y36443490D01*
X32760000Y36830000D01*
X32760000Y37778337D01*
X32906120Y37875971D01*
X33033219Y38066188D01*
X33223683Y37824078D01*
X33781645Y37510856D01*
X33909566Y37479876D01*
X34163000Y37599223D01*
X34163000Y39243000D01*
X34143000Y39243000D01*
X34143000Y39497000D01*
X34163000Y39497000D01*
X34163000Y41140777D01*
X33909566Y41260124D01*
X33781645Y41229144D01*
X33223683Y40915922D01*
X33033219Y40673812D01*
X32906120Y40864029D01*
X32375687Y41218452D01*
X31750000Y41342909D01*
X31124313Y41218452D01*
X30593880Y40864029D01*
X30466781Y40673812D01*
X30276317Y40915922D01*
X29718355Y41229144D01*
X29590434Y41260124D01*
X29337000Y41140777D01*
X29337000Y39497000D01*
X29357000Y39497000D01*
X29357000Y39243000D01*
X29337000Y39243000D01*
X29337000Y37599223D01*
X29590434Y37479876D01*
X29718355Y37510856D01*
X30276317Y37824078D01*
X30466781Y38066188D01*
X30593880Y37875971D01*
X30740000Y37778337D01*
X30740000Y37248356D01*
X29130822Y35639178D01*
X28911882Y35311510D01*
X28835000Y34925000D01*
X28835000Y32160950D01*
X28830302Y32157811D01*
X28575000Y31775725D01*
X28319698Y32157811D01*
X27854151Y32468880D01*
X27305000Y32578113D01*
X26755849Y32468880D01*
X26290302Y32157811D01*
X26035000Y31775725D01*
X25779698Y32157811D01*
X25775000Y32160950D01*
X25775000Y37046644D01*
X26150916Y37422560D01*
X27670000Y37422560D01*
X27905317Y37466838D01*
X28121441Y37605910D01*
X28235349Y37772620D01*
X28701645Y37510856D01*
X28829566Y37479876D01*
X29083000Y37599223D01*
X29083000Y39243000D01*
X29063000Y39243000D01*
X29063000Y39497000D01*
X29083000Y39497000D01*
X29083000Y41140777D01*
X28829566Y41260124D01*
X28701645Y41229144D01*
X28233789Y40966505D01*
X28134090Y41121441D01*
X27921890Y41266431D01*
X27670000Y41317440D01*
X25670000Y41317440D01*
X25434683Y41273162D01*
X25218559Y41134090D01*
X25073569Y40921890D01*
X25022560Y40670000D01*
X25022560Y39150916D01*
X24050822Y38179178D01*
X23831882Y37851510D01*
X23755000Y37465000D01*
X23755000Y32160950D01*
X23750302Y32157811D01*
X23495000Y31775725D01*
X23239698Y32157811D01*
X22774151Y32468880D01*
X22225000Y32578113D01*
X21675849Y32468880D01*
X21210302Y32157811D01*
X20955000Y31775725D01*
X20699698Y32157811D01*
X20234151Y32468880D01*
X19685000Y32578113D01*
X19135849Y32468880D01*
X18670302Y32157811D01*
X18415000Y31775725D01*
X18159698Y32157811D01*
X17694151Y32468880D01*
X17514776Y32504560D01*
X18122000Y32504560D01*
X18357317Y32548838D01*
X18573441Y32687910D01*
X18718431Y32900110D01*
X18769440Y33152000D01*
X18769440Y34052000D01*
X18725162Y34287317D01*
X18586090Y34503441D01*
X18373890Y34648431D01*
X18122000Y34699440D01*
X17860139Y34699440D01*
X17155020Y35404560D01*
X18122000Y35404560D01*
X18357317Y35448838D01*
X18573441Y35587910D01*
X18718431Y35800110D01*
X18769440Y36052000D01*
X18769440Y36952000D01*
X18725162Y37187317D01*
X18586090Y37403441D01*
X18373890Y37548431D01*
X18157000Y37592352D01*
X18157000Y37779673D01*
X18301120Y37875971D01*
X18428219Y38066188D01*
X18618683Y37824078D01*
X19176645Y37510856D01*
X19304566Y37479876D01*
X19558000Y37599223D01*
X19558000Y39243000D01*
X19538000Y39243000D01*
X19538000Y39497000D01*
X19558000Y39497000D01*
X19558000Y39517000D01*
X19812000Y39517000D01*
X19812000Y39497000D01*
X19832000Y39497000D01*
X19832000Y39243000D01*
X19812000Y39243000D01*
X19812000Y37599223D01*
X20065434Y37479876D01*
X20193355Y37510856D01*
X20751317Y37824078D01*
X20941781Y38066188D01*
X21068880Y37875971D01*
X21340000Y37694815D01*
X21340000Y36506744D01*
X21178539Y36345564D01*
X20967241Y35836702D01*
X20966760Y35285715D01*
X21177169Y34776485D01*
X21566436Y34386539D01*
X22075298Y34175241D01*
X22626285Y34174760D01*
X23135515Y34385169D01*
X23525461Y34774436D01*
X23736759Y35283298D01*
X23737240Y35834285D01*
X23526831Y36343515D01*
X23137564Y36733461D01*
X23110000Y36744907D01*
X23110000Y37694815D01*
X23381120Y37875971D01*
X23735543Y38406404D01*
X23860000Y39032091D01*
X23860000Y39707909D01*
X23735543Y40333596D01*
X23381120Y40864029D01*
X22850687Y41218452D01*
X22225000Y41342909D01*
X21599313Y41218452D01*
X21068880Y40864029D01*
X20941781Y40673812D01*
X20751317Y40915922D01*
X20301661Y41168344D01*
X20389317Y41184838D01*
X20605441Y41323910D01*
X20750431Y41536110D01*
X20801440Y41788000D01*
X20801440Y42688000D01*
X20757162Y42923317D01*
X20618090Y43139441D01*
X20405890Y43284431D01*
X20154000Y43335440D01*
X18454000Y43335440D01*
X18218683Y43291162D01*
X18031923Y43170985D01*
X17865890Y43284431D01*
X17614000Y43335440D01*
X15914000Y43335440D01*
X15678683Y43291162D01*
X15491923Y43170985D01*
X15325890Y43284431D01*
X15074000Y43335440D01*
X13374000Y43335440D01*
X13138683Y43291162D01*
X12951923Y43170985D01*
X12785890Y43284431D01*
X12534000Y43335440D01*
X10834000Y43335440D01*
X10598683Y43291162D01*
X10411923Y43170985D01*
X10245890Y43284431D01*
X9994000Y43335440D01*
X8294000Y43335440D01*
X8058683Y43291162D01*
X7871923Y43170985D01*
X7705890Y43284431D01*
X7454000Y43335440D01*
X5754000Y43335440D01*
X5518683Y43291162D01*
X5302559Y43152090D01*
X5282683Y43123000D01*
X2614005Y43123000D01*
X2614000Y43123001D01*
X2275326Y43055634D01*
X2275324Y43055633D01*
X2275325Y43055633D01*
X1988210Y42863790D01*
X1988208Y42863787D01*
X1393000Y42268580D01*
X1393000Y43247420D01*
X1678787Y43533208D01*
X1678790Y43533210D01*
X1715790Y43570211D01*
X1864797Y43793217D01*
X2923829Y44852250D01*
X5119000Y44852250D01*
X5119000Y44561691D01*
X5215673Y44328302D01*
X5394301Y44149673D01*
X5627690Y44053000D01*
X6318250Y44053000D01*
X6477000Y44211750D01*
X6477000Y45011000D01*
X6731000Y45011000D01*
X6731000Y44211750D01*
X6889750Y44053000D01*
X7580310Y44053000D01*
X7813699Y44149673D01*
X7874000Y44209974D01*
X7934301Y44149673D01*
X8167690Y44053000D01*
X8858250Y44053000D01*
X9017000Y44211750D01*
X9017000Y45011000D01*
X9271000Y45011000D01*
X9271000Y44211750D01*
X9429750Y44053000D01*
X10120310Y44053000D01*
X10353699Y44149673D01*
X10414000Y44209974D01*
X10474301Y44149673D01*
X10707690Y44053000D01*
X11398250Y44053000D01*
X11557000Y44211750D01*
X11557000Y45011000D01*
X11811000Y45011000D01*
X11811000Y44211750D01*
X11969750Y44053000D01*
X12660310Y44053000D01*
X12893699Y44149673D01*
X12954000Y44209974D01*
X13014301Y44149673D01*
X13247690Y44053000D01*
X13938250Y44053000D01*
X14097000Y44211750D01*
X14097000Y45011000D01*
X11811000Y45011000D01*
X11557000Y45011000D01*
X9271000Y45011000D01*
X9017000Y45011000D01*
X6731000Y45011000D01*
X6477000Y45011000D01*
X5277750Y45011000D01*
X5119000Y44852250D01*
X2923829Y44852250D01*
X3668579Y45597000D01*
X5119000Y45597000D01*
X5119000Y45423750D01*
X5277750Y45265000D01*
X6477000Y45265000D01*
X6477000Y45285000D01*
X6731000Y45285000D01*
X6731000Y45265000D01*
X9017000Y45265000D01*
X9017000Y45285000D01*
X9271000Y45285000D01*
X9271000Y45265000D01*
X11557000Y45265000D01*
X11557000Y45285000D01*
X11811000Y45285000D01*
X11811000Y45265000D01*
X14097000Y45265000D01*
X14097000Y45285000D01*
X14351000Y45285000D01*
X14351000Y45265000D01*
X14371000Y45265000D01*
X14371000Y45011000D01*
X14351000Y45011000D01*
X14351000Y44211750D01*
X14509750Y44053000D01*
X15200310Y44053000D01*
X15433699Y44149673D01*
X15491897Y44207871D01*
X15662110Y44091569D01*
X15914000Y44040560D01*
X17614000Y44040560D01*
X17849317Y44084838D01*
X18037831Y44206143D01*
X18094301Y44149673D01*
X18327690Y44053000D01*
X19018250Y44053000D01*
X19177000Y44211750D01*
X19177000Y45011000D01*
X19431000Y45011000D01*
X19431000Y44211750D01*
X19589750Y44053000D01*
X20280310Y44053000D01*
X20513699Y44149673D01*
X20692327Y44328302D01*
X20789000Y44561691D01*
X20789000Y44852250D01*
X20630250Y45011000D01*
X19431000Y45011000D01*
X19177000Y45011000D01*
X19157000Y45011000D01*
X19157000Y45265000D01*
X19177000Y45265000D01*
X19177000Y46064250D01*
X19431000Y46064250D01*
X19431000Y45265000D01*
X20630250Y45265000D01*
X20789000Y45423750D01*
X20789000Y45714309D01*
X20692327Y45947698D01*
X20513699Y46126327D01*
X20280310Y46223000D01*
X19589750Y46223000D01*
X19431000Y46064250D01*
X19177000Y46064250D01*
X19018250Y46223000D01*
X18327690Y46223000D01*
X18094301Y46126327D01*
X18036103Y46068129D01*
X17865890Y46184431D01*
X17614000Y46235440D01*
X17596996Y46235440D01*
X17581633Y46312675D01*
X17389790Y46599790D01*
X17389787Y46599792D01*
X16881790Y47107790D01*
X16594675Y47299633D01*
X16538484Y47310810D01*
X16256000Y47367001D01*
X16255995Y47367000D01*
X3302000Y47367000D01*
X2963325Y47299633D01*
X2676210Y47107790D01*
X2676208Y47107787D01*
X427210Y44858790D01*
X278200Y44635779D01*
X127000Y44484579D01*
X127000Y47625000D01*
X59309000Y47625000D01*
X59309000Y127000D01*
X59309000Y127000D01*
G37*
X59309000Y127000D02*
X127000Y127000D01*
X127000Y27378155D01*
X230436Y27274539D01*
X739298Y27063241D01*
X1221000Y27062820D01*
X1221000Y22152669D01*
X1204559Y22142090D01*
X1059569Y21929890D01*
X1008560Y21678000D01*
X1008560Y19978000D01*
X1052838Y19742683D01*
X1191910Y19526559D01*
X1404110Y19381569D01*
X1656000Y19330560D01*
X2556000Y19330560D01*
X2671000Y19352199D01*
X2671000Y18146579D01*
X1914210Y17389790D01*
X1722367Y17102675D01*
X1712009Y17050603D01*
X1654999Y16764000D01*
X1655000Y16763995D01*
X1655000Y12446005D01*
X1654999Y12446000D01*
X1694458Y12247633D01*
X1722367Y12107325D01*
X1816857Y11965910D01*
X1914210Y11820210D01*
X3184208Y10550213D01*
X3184210Y10550210D01*
X3459138Y10366510D01*
X3471325Y10358367D01*
X3810000Y10290999D01*
X3810005Y10291000D01*
X4114001Y10291000D01*
X4200630Y10081342D01*
X4744479Y9536543D01*
X5455416Y9241337D01*
X6225207Y9240665D01*
X6936658Y9534630D01*
X7481457Y10078479D01*
X7776663Y10789416D01*
X7777335Y11559207D01*
X7483370Y12270658D01*
X6939521Y12815457D01*
X6228584Y13110663D01*
X5458793Y13111335D01*
X4747342Y12817370D01*
X4202543Y12273521D01*
X4132571Y12105009D01*
X3425000Y12812580D01*
X3425000Y14840124D01*
X3430302Y14832189D01*
X3895849Y14521120D01*
X4445000Y14411887D01*
X4994151Y14521120D01*
X5459698Y14832189D01*
X5715000Y15214275D01*
X5970302Y14832189D01*
X6435849Y14521120D01*
X6985000Y14411887D01*
X7534151Y14521120D01*
X7999698Y14832189D01*
X8255000Y15214275D01*
X8510302Y14832189D01*
X8975849Y14521120D01*
X9525000Y14411887D01*
X10074151Y14521120D01*
X10539698Y14832189D01*
X10795000Y15214275D01*
X11050302Y14832189D01*
X11515849Y14521120D01*
X12065000Y14411887D01*
X12614151Y14521120D01*
X13079698Y14832189D01*
X13335000Y15214275D01*
X13590302Y14832189D01*
X14055849Y14521120D01*
X14605000Y14411887D01*
X15154151Y14521120D01*
X15619698Y14832189D01*
X15875000Y15214275D01*
X16130302Y14832189D01*
X16595849Y14521120D01*
X17145000Y14411887D01*
X17694151Y14521120D01*
X18159698Y14832189D01*
X18415000Y15214275D01*
X18564682Y14990261D01*
X17413420Y13839000D01*
X16785400Y13839000D01*
X16758090Y13881441D01*
X16545890Y14026431D01*
X16294000Y14077440D01*
X14694000Y14077440D01*
X14458683Y14033162D01*
X14242559Y13894090D01*
X14198212Y13829186D01*
X14055890Y13926431D01*
X13804000Y13977440D01*
X12104000Y13977440D01*
X11868683Y13933162D01*
X11652559Y13794090D01*
X11507569Y13581890D01*
X11456560Y13330000D01*
X11456560Y12430000D01*
X11478199Y12315000D01*
X11176005Y12315000D01*
X11176000Y12315001D01*
X10893516Y12258810D01*
X10837325Y12247633D01*
X10550210Y12055790D01*
X10550208Y12055787D01*
X9788210Y11293790D01*
X9596367Y11006675D01*
X9596367Y11006674D01*
X9528999Y10668000D01*
X9529000Y10667995D01*
X9529000Y2540005D01*
X9528999Y2540000D01*
X9585190Y2257516D01*
X9596367Y2201325D01*
X9729151Y2002599D01*
X9788210Y1914210D01*
X11312208Y390213D01*
X11312210Y390210D01*
X11599325Y198367D01*
X11938000Y131000D01*
X20827995Y131000D01*
X20828000Y130999D01*
X21110484Y187190D01*
X21166675Y198367D01*
X21453790Y390210D01*
X21453791Y390211D01*
X21707787Y644208D01*
X21707790Y644210D01*
X21899633Y931325D01*
X21923046Y1049031D01*
X21955000Y1042560D01*
X22855000Y1042560D01*
X23090317Y1086838D01*
X23176653Y1142394D01*
X23248110Y1093569D01*
X23500000Y1042560D01*
X24400000Y1042560D01*
X24635317Y1086838D01*
X24851441Y1225910D01*
X24996431Y1438110D01*
X25047440Y1690000D01*
X25047440Y2254250D01*
X25765000Y2254250D01*
X25765000Y1563690D01*
X25861673Y1330301D01*
X26040302Y1151673D01*
X26273691Y1055000D01*
X26564250Y1055000D01*
X26723000Y1213750D01*
X26723000Y2413000D01*
X26977000Y2413000D01*
X26977000Y1213750D01*
X27135750Y1055000D01*
X27426309Y1055000D01*
X27659698Y1151673D01*
X27838327Y1330301D01*
X27935000Y1563690D01*
X27935000Y2254250D01*
X27776250Y2413000D01*
X26977000Y2413000D01*
X26723000Y2413000D01*
X25923750Y2413000D01*
X25765000Y2254250D01*
X25047440Y2254250D01*
X25047440Y3390000D01*
X25023674Y3516310D01*
X25765000Y3516310D01*
X25765000Y2825750D01*
X25923750Y2667000D01*
X26723000Y2667000D01*
X26723000Y3866250D01*
X26977000Y3866250D01*
X26977000Y2667000D01*
X27776250Y2667000D01*
X27935000Y2825750D01*
X27935000Y3516310D01*
X27838327Y3749699D01*
X27659698Y3928327D01*
X27426309Y4025000D01*
X27135750Y4025000D01*
X26977000Y3866250D01*
X26723000Y3866250D01*
X26564250Y4025000D01*
X26273691Y4025000D01*
X26040302Y3928327D01*
X25861673Y3749699D01*
X25765000Y3516310D01*
X25023674Y3516310D01*
X25003162Y3625317D01*
X24864090Y3841441D01*
X24651890Y3986431D01*
X24400000Y4037440D01*
X23500000Y4037440D01*
X23290000Y3997926D01*
X23290000Y4518995D01*
X23290001Y4519000D01*
X23222633Y4857674D01*
X23222633Y4857675D01*
X23030790Y5144790D01*
X23030787Y5144792D01*
X22877440Y5298139D01*
X22877440Y5780000D01*
X22833162Y6015317D01*
X22694090Y6231441D01*
X22518768Y6351233D01*
X22681441Y6455910D01*
X22690555Y6469250D01*
X23330000Y6469250D01*
X23330000Y6128691D01*
X23426673Y5895302D01*
X23605301Y5716673D01*
X23838690Y5620000D01*
X24479250Y5620000D01*
X24638000Y5778750D01*
X24638000Y6628000D01*
X24892000Y6628000D01*
X24892000Y5778750D01*
X25050750Y5620000D01*
X25691310Y5620000D01*
X25924699Y5716673D01*
X26103327Y5895302D01*
X26200000Y6128691D01*
X26200000Y6469250D01*
X26041250Y6628000D01*
X24892000Y6628000D01*
X24638000Y6628000D01*
X23488750Y6628000D01*
X23330000Y6469250D01*
X22690555Y6469250D01*
X22826431Y6668110D01*
X22877440Y6920000D01*
X22877440Y7014570D01*
X22939178Y7055822D01*
X23156660Y7381309D01*
X23330000Y7381309D01*
X23330000Y7040750D01*
X23488750Y6882000D01*
X24638000Y6882000D01*
X24638000Y7731250D01*
X24892000Y7731250D01*
X24892000Y6882000D01*
X26041250Y6882000D01*
X26200000Y7040750D01*
X26200000Y7381309D01*
X26103327Y7614698D01*
X25924699Y7793327D01*
X25691310Y7890000D01*
X25050750Y7890000D01*
X24892000Y7731250D01*
X24638000Y7731250D01*
X24479250Y7890000D01*
X23838690Y7890000D01*
X23605301Y7793327D01*
X23426673Y7614698D01*
X23330000Y7381309D01*
X23156660Y7381309D01*
X23158118Y7383490D01*
X23235000Y7770000D01*
X23235000Y8745000D01*
X23586614Y8745000D01*
X23713110Y8658569D01*
X23965000Y8607560D01*
X25565000Y8607560D01*
X25800317Y8651838D01*
X26016441Y8790910D01*
X26161431Y9003110D01*
X26191177Y9150000D01*
X26692666Y9150000D01*
X26706838Y9074683D01*
X26845910Y8858559D01*
X27058110Y8713569D01*
X27310000Y8662560D01*
X28210000Y8662560D01*
X28445317Y8706838D01*
X28661441Y8845910D01*
X28806431Y9058110D01*
X28857440Y9310000D01*
X28857440Y10160000D01*
X29525000Y10160000D01*
X29562560Y9971174D01*
X29562560Y9310000D01*
X29606838Y9074683D01*
X29745910Y8858559D01*
X29958110Y8713569D01*
X30210000Y8662560D01*
X31057084Y8662560D01*
X36369822Y3349822D01*
X36697490Y3130882D01*
X37084000Y3054000D01*
X44069000Y3054000D01*
X44455510Y3130882D01*
X44783178Y3349822D01*
X47000802Y5567446D01*
X47198459Y5485372D01*
X48047815Y5484630D01*
X48832800Y5808980D01*
X49433909Y6409041D01*
X49759628Y7193459D01*
X49759750Y7334250D01*
X50570000Y7334250D01*
X50570000Y5993690D01*
X50666673Y5760301D01*
X50845302Y5581673D01*
X51078691Y5485000D01*
X52419250Y5485000D01*
X52578000Y5643750D01*
X52578000Y7493000D01*
X52832000Y7493000D01*
X52832000Y5643750D01*
X52990750Y5485000D01*
X54331309Y5485000D01*
X54564698Y5581673D01*
X54743327Y5760301D01*
X54840000Y5993690D01*
X54840000Y7334250D01*
X54681250Y7493000D01*
X52832000Y7493000D01*
X52578000Y7493000D01*
X50728750Y7493000D01*
X50570000Y7334250D01*
X49759750Y7334250D01*
X49760370Y8042815D01*
X49436020Y8827800D01*
X49018240Y9246310D01*
X50570000Y9246310D01*
X50570000Y7905750D01*
X50728750Y7747000D01*
X52578000Y7747000D01*
X52578000Y9596250D01*
X52832000Y9596250D01*
X52832000Y7747000D01*
X54681250Y7747000D01*
X54840000Y7905750D01*
X54840000Y9246310D01*
X54743327Y9479699D01*
X54564698Y9658327D01*
X54331309Y9755000D01*
X52990750Y9755000D01*
X52832000Y9596250D01*
X52578000Y9596250D01*
X52419250Y9755000D01*
X51078691Y9755000D01*
X50845302Y9658327D01*
X50666673Y9479699D01*
X50570000Y9246310D01*
X49018240Y9246310D01*
X48835959Y9428909D01*
X48051541Y9754628D01*
X47202185Y9755370D01*
X46417200Y9431020D01*
X45816091Y8830959D01*
X45490372Y8046541D01*
X45489630Y7197185D01*
X45572725Y6996081D01*
X43650644Y5074000D01*
X37502356Y5074000D01*
X32050159Y10526197D01*
X32036603Y10594346D01*
X31790566Y10962566D01*
X31757440Y10984700D01*
X31757440Y11010000D01*
X31713162Y11245317D01*
X31574090Y11461441D01*
X31361890Y11606431D01*
X31110000Y11657440D01*
X30210000Y11657440D01*
X29974683Y11613162D01*
X29758559Y11474090D01*
X29613569Y11261890D01*
X29562560Y11010000D01*
X29562560Y10348826D01*
X29525000Y10160000D01*
X28857440Y10160000D01*
X28857440Y11010000D01*
X28813162Y11245317D01*
X28674090Y11461441D01*
X28461890Y11606431D01*
X28210000Y11657440D01*
X27310000Y11657440D01*
X27074683Y11613162D01*
X26858559Y11474090D01*
X26713569Y11261890D01*
X26694961Y11170000D01*
X25170000Y11170000D01*
X24783490Y11093118D01*
X24498119Y10902440D01*
X23965000Y10902440D01*
X23729683Y10858162D01*
X23605493Y10778248D01*
X23539090Y10881441D01*
X23326890Y11026431D01*
X23075000Y11077440D01*
X21375000Y11077440D01*
X21139683Y11033162D01*
X20923559Y10894090D01*
X20778569Y10681890D01*
X20727560Y10430000D01*
X20727560Y9530000D01*
X20771838Y9294683D01*
X20910910Y9078559D01*
X21123110Y8933569D01*
X21215000Y8914961D01*
X21215000Y8589250D01*
X21082000Y8456250D01*
X21082000Y8375949D01*
X20983569Y8231890D01*
X20955824Y8094880D01*
X20933162Y8215317D01*
X20828000Y8378743D01*
X20828000Y8456250D01*
X20669250Y8615000D01*
X20503690Y8615000D01*
X20466829Y8599732D01*
X20330000Y8627440D01*
X19680000Y8627440D01*
X19444683Y8583162D01*
X19228559Y8444090D01*
X19154021Y8335000D01*
X19134005Y8335000D01*
X19134000Y8335001D01*
X19133995Y8335000D01*
X14506579Y8335000D01*
X13934470Y8907110D01*
X14039317Y8926838D01*
X14197408Y9028567D01*
X14334301Y8891673D01*
X14567690Y8795000D01*
X15208250Y8795000D01*
X15367000Y8953750D01*
X15367000Y9803000D01*
X15621000Y9803000D01*
X15621000Y8953750D01*
X15779750Y8795000D01*
X16420310Y8795000D01*
X16653699Y8891673D01*
X16832327Y9070302D01*
X16929000Y9303691D01*
X16929000Y9644250D01*
X16770250Y9803000D01*
X15621000Y9803000D01*
X15367000Y9803000D01*
X15347000Y9803000D01*
X15347000Y10057000D01*
X15367000Y10057000D01*
X15367000Y10077000D01*
X15621000Y10077000D01*
X15621000Y10057000D01*
X16770250Y10057000D01*
X16929000Y10215750D01*
X16929000Y10545000D01*
X18287995Y10545000D01*
X18288000Y10544999D01*
X18593610Y10605790D01*
X18626675Y10612367D01*
X18913790Y10804210D01*
X18913791Y10804211D01*
X20862577Y12752998D01*
X20898748Y12752998D01*
X20740000Y12594250D01*
X20740000Y12303691D01*
X20836673Y12070302D01*
X21015301Y11891673D01*
X21248690Y11795000D01*
X21939250Y11795000D01*
X22098000Y11953750D01*
X22098000Y12753000D01*
X22352000Y12753000D01*
X22352000Y11953750D01*
X22510750Y11795000D01*
X23201310Y11795000D01*
X23434699Y11891673D01*
X23613327Y12070302D01*
X23710000Y12303691D01*
X23710000Y12594250D01*
X23551250Y12753000D01*
X22352000Y12753000D01*
X22098000Y12753000D01*
X22078000Y12753000D01*
X22078000Y13007000D01*
X22098000Y13007000D01*
X22098000Y13027000D01*
X22352000Y13027000D01*
X22352000Y13007000D01*
X23551250Y13007000D01*
X23710000Y13165750D01*
X23710000Y13339000D01*
X30987995Y13339000D01*
X30988000Y13338999D01*
X31270484Y13395190D01*
X31326675Y13406367D01*
X31613790Y13598210D01*
X31613791Y13598211D01*
X32438011Y14422432D01*
X32934151Y14521120D01*
X33399698Y14832189D01*
X33655000Y15214275D01*
X33910302Y14832189D01*
X34375849Y14521120D01*
X34925000Y14411887D01*
X35474151Y14521120D01*
X35939698Y14832189D01*
X36209986Y15236703D01*
X36312611Y15019866D01*
X36727577Y14643959D01*
X37115961Y14483096D01*
X37338000Y14605085D01*
X37338000Y15748000D01*
X37318000Y15748000D01*
X37318000Y16002000D01*
X37338000Y16002000D01*
X37338000Y17144915D01*
X37115961Y17266904D01*
X36727577Y17106041D01*
X36312611Y16730134D01*
X36209986Y16513297D01*
X35939698Y16917811D01*
X35474151Y17228880D01*
X34925000Y17338113D01*
X34375849Y17228880D01*
X33910302Y16917811D01*
X33655000Y16535725D01*
X33399698Y16917811D01*
X33243970Y17021865D01*
X33202634Y17229674D01*
X33095648Y17389790D01*
X33010790Y17516790D01*
X33010787Y17516792D01*
X32375790Y18151790D01*
X32348204Y18170222D01*
X32202231Y18267758D01*
X32549223Y18143035D01*
X33119454Y18170222D01*
X33520005Y18336136D01*
X33594139Y18582255D01*
X32766000Y19410395D01*
X31937861Y18582255D01*
X32004706Y18360336D01*
X31750000Y18411001D01*
X31749995Y18411000D01*
X30883802Y18411000D01*
X30899000Y18447691D01*
X30899000Y18788250D01*
X30740250Y18947000D01*
X29591000Y18947000D01*
X29591000Y18927000D01*
X29337000Y18927000D01*
X29337000Y18947000D01*
X28187750Y18947000D01*
X28029000Y18788250D01*
X28029000Y18447691D01*
X28044198Y18411000D01*
X27327802Y18411000D01*
X27343000Y18447691D01*
X27343000Y18788250D01*
X27184250Y18947000D01*
X26035000Y18947000D01*
X26035000Y18927000D01*
X25781000Y18927000D01*
X25781000Y18947000D01*
X25761000Y18947000D01*
X25761000Y19201000D01*
X25781000Y19201000D01*
X25781000Y20050250D01*
X26035000Y20050250D01*
X26035000Y19201000D01*
X27184250Y19201000D01*
X27343000Y19359750D01*
X27343000Y19700309D01*
X28029000Y19700309D01*
X28029000Y19359750D01*
X28187750Y19201000D01*
X29337000Y19201000D01*
X29337000Y20050250D01*
X29591000Y20050250D01*
X29591000Y19201000D01*
X30740250Y19201000D01*
X30899000Y19359750D01*
X30899000Y19700309D01*
X30802327Y19933698D01*
X30623699Y20112327D01*
X30390310Y20209000D01*
X29749750Y20209000D01*
X29591000Y20050250D01*
X29337000Y20050250D01*
X29178250Y20209000D01*
X28537690Y20209000D01*
X28304301Y20112327D01*
X28125673Y19933698D01*
X28029000Y19700309D01*
X27343000Y19700309D01*
X27246327Y19933698D01*
X27067699Y20112327D01*
X26834310Y20209000D01*
X26193750Y20209000D01*
X26035000Y20050250D01*
X25781000Y20050250D01*
X25622250Y20209000D01*
X24981690Y20209000D01*
X24748301Y20112327D01*
X24669808Y20033833D01*
X24469890Y20170431D01*
X24218000Y20221440D01*
X22518000Y20221440D01*
X22282683Y20177162D01*
X22066559Y20038090D01*
X21921569Y19825890D01*
X21870560Y19574000D01*
X21870560Y18674000D01*
X21914838Y18438683D01*
X22053910Y18222559D01*
X22266110Y18077569D01*
X22518000Y18026560D01*
X22535004Y18026560D01*
X22550367Y17949325D01*
X22690611Y17739434D01*
X22742210Y17662210D01*
X23504208Y16900213D01*
X23504210Y16900210D01*
X23666213Y16791964D01*
X23495000Y16535725D01*
X23239698Y16917811D01*
X22774151Y17228880D01*
X22225000Y17338113D01*
X21675849Y17228880D01*
X21210302Y16917811D01*
X20955000Y16535725D01*
X20699698Y16917811D01*
X20234151Y17228880D01*
X19685000Y17338113D01*
X19135849Y17228880D01*
X18670302Y16917811D01*
X18415000Y16535725D01*
X18159698Y16917811D01*
X17694151Y17228880D01*
X17145000Y17338113D01*
X16595849Y17228880D01*
X16130302Y16917811D01*
X15875000Y16535725D01*
X15619698Y16917811D01*
X15154151Y17228880D01*
X14605000Y17338113D01*
X14055849Y17228880D01*
X13590302Y16917811D01*
X13335000Y16535725D01*
X13079698Y16917811D01*
X12614151Y17228880D01*
X12065000Y17338113D01*
X11515849Y17228880D01*
X11050302Y16917811D01*
X10795000Y16535725D01*
X10539698Y16917811D01*
X10074151Y17228880D01*
X9525000Y17338113D01*
X8975849Y17228880D01*
X8510302Y16917811D01*
X8255000Y16535725D01*
X7999698Y16917811D01*
X7870000Y17004473D01*
X7870000Y21919566D01*
X8112000Y21870560D01*
X9012000Y21870560D01*
X9247317Y21914838D01*
X9463441Y22053910D01*
X9608431Y22266110D01*
X9652352Y22483000D01*
X21657420Y22483000D01*
X21870560Y22269860D01*
X21870560Y21574000D01*
X21914838Y21338683D01*
X22053910Y21122559D01*
X22266110Y20977569D01*
X22518000Y20926560D01*
X24218000Y20926560D01*
X24453317Y20970838D01*
X24665826Y21107584D01*
X24856110Y20977569D01*
X25108000Y20926560D01*
X26708000Y20926560D01*
X26943317Y20970838D01*
X27159441Y21109910D01*
X27304431Y21322110D01*
X27355440Y21574000D01*
X27355440Y22574000D01*
X27311162Y22809317D01*
X27172090Y23025441D01*
X26959890Y23170431D01*
X26708000Y23221440D01*
X25108000Y23221440D01*
X24872683Y23177162D01*
X24656559Y23038090D01*
X24612212Y22973186D01*
X24469890Y23070431D01*
X24253000Y23114352D01*
X24253000Y25957848D01*
X24368000Y25934560D01*
X25268000Y25934560D01*
X25503317Y25978838D01*
X25719441Y26117910D01*
X25864431Y26330110D01*
X25883039Y26422000D01*
X41656000Y26422000D01*
X42042510Y26498882D01*
X42370178Y26717822D01*
X45960920Y30308564D01*
X45941397Y30279346D01*
X45855000Y29845000D01*
X45855000Y28173222D01*
X45854683Y28173162D01*
X45638559Y28034090D01*
X45493569Y27821890D01*
X45442560Y27570000D01*
X45442560Y25770000D01*
X45443501Y25765000D01*
X42926005Y25765000D01*
X42926000Y25765001D01*
X42381454Y25656683D01*
X42300313Y25640543D01*
X41769880Y25286120D01*
X41769878Y25286117D01*
X39991880Y23508120D01*
X39637457Y22977688D01*
X39512999Y22352000D01*
X39513000Y22351995D01*
X39513000Y19750132D01*
X38377440Y20885692D01*
X38377440Y22490000D01*
X38333162Y22725317D01*
X38194090Y22941441D01*
X37981890Y23086431D01*
X37730000Y23137440D01*
X35930000Y23137440D01*
X35694683Y23093162D01*
X35478559Y22954090D01*
X35333569Y22741890D01*
X35330149Y22725000D01*
X34105018Y22725000D01*
X34030090Y22841441D01*
X33817890Y22986431D01*
X33566000Y23037440D01*
X31966000Y23037440D01*
X31730683Y22993162D01*
X31514559Y22854090D01*
X31426356Y22725000D01*
X30883027Y22725000D01*
X30867162Y22809317D01*
X30728090Y23025441D01*
X30515890Y23170431D01*
X30264000Y23221440D01*
X28664000Y23221440D01*
X28428683Y23177162D01*
X28212559Y23038090D01*
X28067569Y22825890D01*
X28016560Y22574000D01*
X28016560Y21574000D01*
X28060838Y21338683D01*
X28199910Y21122559D01*
X28412110Y20977569D01*
X28664000Y20926560D01*
X29006308Y20926560D01*
X29145434Y20787434D01*
X29513654Y20541397D01*
X29948000Y20455000D01*
X31426982Y20455000D01*
X31501910Y20338559D01*
X31508548Y20334023D01*
X31319035Y19806777D01*
X31346222Y19236546D01*
X31512136Y18835995D01*
X31758255Y18761861D01*
X32586395Y19590000D01*
X32572252Y19604142D01*
X32751858Y19783747D01*
X32766000Y19769605D01*
X32780143Y19783747D01*
X32959748Y19604142D01*
X32945605Y19590000D01*
X33773745Y18761861D01*
X34019864Y18835995D01*
X34212965Y19373223D01*
X34185778Y19943454D01*
X34023616Y20334947D01*
X34105644Y20455000D01*
X35326778Y20455000D01*
X35326838Y20454683D01*
X35465910Y20238559D01*
X35678110Y20093569D01*
X35930000Y20042560D01*
X36015991Y20042560D01*
X36027434Y20025434D01*
X37981000Y18071868D01*
X37981000Y17780000D01*
X38067397Y17345654D01*
X38265959Y17048486D01*
X38202423Y17106041D01*
X37814039Y17266904D01*
X37592000Y17144915D01*
X37592000Y16002000D01*
X37612000Y16002000D01*
X37612000Y15748000D01*
X37592000Y15748000D01*
X37592000Y14605085D01*
X37814039Y14483096D01*
X38202423Y14643959D01*
X38617389Y15019866D01*
X38720014Y15236703D01*
X38990302Y14832189D01*
X39455849Y14521120D01*
X40005000Y14411887D01*
X40554151Y14521120D01*
X40910000Y14758891D01*
X40910000Y9004565D01*
X40736091Y8830959D01*
X40410372Y8046541D01*
X40409630Y7197185D01*
X40733980Y6412200D01*
X41334041Y5811091D01*
X42118459Y5485372D01*
X42967815Y5484630D01*
X43752800Y5808980D01*
X44353909Y6409041D01*
X44679628Y7193459D01*
X44680370Y8042815D01*
X44356020Y8827800D01*
X44180000Y9004127D01*
X44180000Y18161000D01*
X44055543Y18786687D01*
X43701120Y19317120D01*
X43701117Y19317122D01*
X42783000Y20235240D01*
X42783000Y21674760D01*
X42843992Y21735752D01*
X42815000Y21590000D01*
X42939457Y20964313D01*
X43293880Y20433880D01*
X43824313Y20079457D01*
X44450000Y19955000D01*
X53085995Y19955000D01*
X53086000Y19954999D01*
X53711688Y20079457D01*
X54242120Y20433880D01*
X55512117Y21703878D01*
X55512120Y21703880D01*
X55828528Y22177419D01*
X55866543Y22234312D01*
X55991000Y22860000D01*
X55991000Y32512000D01*
X55866543Y33137687D01*
X55512120Y33668120D01*
X55512117Y33668122D01*
X50054210Y39126030D01*
X51370635Y39126030D01*
X51530418Y38807261D01*
X52321187Y38497277D01*
X53170387Y38513503D01*
X53879582Y38807261D01*
X54039365Y39126030D01*
X52705000Y40460395D01*
X51370635Y39126030D01*
X50054210Y39126030D01*
X49772440Y39407800D01*
X49772440Y41023813D01*
X50562277Y41023813D01*
X50578503Y40174613D01*
X50872261Y39465418D01*
X51191030Y39305635D01*
X52525395Y40640000D01*
X52884605Y40640000D01*
X54218970Y39305635D01*
X54537739Y39465418D01*
X54847723Y40256187D01*
X54831497Y41105387D01*
X54537739Y41814582D01*
X54218970Y41974365D01*
X52884605Y40640000D01*
X52525395Y40640000D01*
X51191030Y41974365D01*
X50872261Y41814582D01*
X50562277Y41023813D01*
X49772440Y41023813D01*
X49772440Y42140000D01*
X49769812Y42153970D01*
X51370635Y42153970D01*
X52705000Y40819605D01*
X54039365Y42153970D01*
X53879582Y42472739D01*
X53088813Y42782723D01*
X52239613Y42766497D01*
X51530418Y42472739D01*
X51370635Y42153970D01*
X49769812Y42153970D01*
X49728162Y42375317D01*
X49589090Y42591441D01*
X49376890Y42736431D01*
X49125000Y42787440D01*
X46125000Y42787440D01*
X45889683Y42743162D01*
X45673559Y42604090D01*
X45528569Y42391890D01*
X45477560Y42140000D01*
X45477560Y39140000D01*
X45521838Y38904683D01*
X45660910Y38688559D01*
X45873110Y38543569D01*
X46125000Y38492560D01*
X46197814Y38492560D01*
X46468880Y38086880D01*
X52721000Y31834761D01*
X52721000Y26336817D01*
X52705000Y26340000D01*
X52525000Y26340000D01*
X52234161Y26282148D01*
X51987599Y26117401D01*
X51822852Y25870839D01*
X51765000Y25580000D01*
X51822852Y25289161D01*
X51987599Y25042599D01*
X52234161Y24877852D01*
X52525000Y24820000D01*
X52705000Y24820000D01*
X52721000Y24823183D01*
X52721000Y23537239D01*
X52408760Y23225000D01*
X51927000Y23225000D01*
X51927000Y23442000D01*
X51802543Y24067687D01*
X51448120Y24598120D01*
X50917687Y24952543D01*
X50292000Y25077000D01*
X49666313Y24952543D01*
X49135880Y24598120D01*
X48781457Y24067687D01*
X48657000Y23442000D01*
X48657000Y23225000D01*
X48313913Y23225000D01*
X48500543Y23504313D01*
X48625000Y24130000D01*
X48500543Y24755687D01*
X48198986Y25207000D01*
X50292000Y25207000D01*
X50480826Y25244560D01*
X51142000Y25244560D01*
X51377317Y25288838D01*
X51593441Y25427910D01*
X51738431Y25640110D01*
X51789440Y25892000D01*
X51789440Y26792000D01*
X51745162Y27027317D01*
X51606090Y27243441D01*
X51393890Y27388431D01*
X51142000Y27439440D01*
X50480826Y27439440D01*
X50292000Y27477000D01*
X48537440Y27477000D01*
X48537440Y27570000D01*
X48493162Y27805317D01*
X48354090Y28021441D01*
X48141890Y28166431D01*
X48125000Y28169851D01*
X48125000Y29332560D01*
X48360317Y29376838D01*
X48576441Y29515910D01*
X48721431Y29728110D01*
X48772440Y29980000D01*
X48772440Y30980000D01*
X48728162Y31215317D01*
X48589090Y31431441D01*
X48376890Y31576431D01*
X48125000Y31627440D01*
X47489894Y31627440D01*
X47490108Y31872606D01*
X47930375Y31903783D01*
X48198352Y32014783D01*
X48235499Y32229896D01*
X47625000Y32840395D01*
X47610858Y32826252D01*
X47431253Y33005857D01*
X47445395Y33020000D01*
X47804605Y33020000D01*
X48415104Y32409501D01*
X48630217Y32446648D01*
X48773112Y32874972D01*
X48741217Y33325375D01*
X48630217Y33593352D01*
X48415104Y33630499D01*
X47804605Y33020000D01*
X47445395Y33020000D01*
X46834896Y33630499D01*
X46619783Y33593352D01*
X46476888Y33165028D01*
X46496727Y32884877D01*
X46130225Y32885197D01*
X45712914Y32712767D01*
X45707034Y32706897D01*
X45587490Y32683118D01*
X45259822Y32464178D01*
X43555000Y30759356D01*
X43555000Y33020000D01*
X43478118Y33406510D01*
X43259178Y33734178D01*
X43183252Y33810104D01*
X47014501Y33810104D01*
X47625000Y33199605D01*
X48235499Y33810104D01*
X48198352Y34025217D01*
X47770028Y34168112D01*
X47319625Y34136217D01*
X47051648Y34025217D01*
X47014501Y33810104D01*
X43183252Y33810104D01*
X41989178Y35004178D01*
X41661510Y35223118D01*
X41275000Y35300000D01*
X38518356Y35300000D01*
X37840000Y35978356D01*
X37840000Y37778337D01*
X37986120Y37875971D01*
X38340543Y38406404D01*
X38465000Y39032091D01*
X38465000Y39707909D01*
X38340543Y40333596D01*
X37986120Y40864029D01*
X37455687Y41218452D01*
X36830000Y41342909D01*
X36204313Y41218452D01*
X35673880Y40864029D01*
X35546781Y40673812D01*
X35356317Y40915922D01*
X34798355Y41229144D01*
X34670434Y41260124D01*
X34417000Y41140777D01*
X34417000Y39497000D01*
X34437000Y39497000D01*
X34437000Y39243000D01*
X34417000Y39243000D01*
X34417000Y37599223D01*
X34670434Y37479876D01*
X34798355Y37510856D01*
X35356317Y37824078D01*
X35546781Y38066188D01*
X35673880Y37875971D01*
X35820000Y37778337D01*
X35820000Y35560000D01*
X35896882Y35173490D01*
X36115822Y34845822D01*
X37385822Y33575822D01*
X37713490Y33356882D01*
X38100000Y33280000D01*
X40856644Y33280000D01*
X41535000Y32601644D01*
X41535000Y30263356D01*
X41491644Y30220000D01*
X41433202Y30220000D01*
X41452440Y30315000D01*
X41452440Y31915000D01*
X41408162Y32150317D01*
X41269090Y32366441D01*
X41056890Y32511431D01*
X40805000Y32562440D01*
X39205000Y32562440D01*
X38969683Y32518162D01*
X38753559Y32379090D01*
X38608569Y32166890D01*
X38577185Y32011911D01*
X38479698Y32157811D01*
X38014151Y32468880D01*
X37465000Y32578113D01*
X36915849Y32468880D01*
X36450302Y32157811D01*
X36195000Y31775725D01*
X35939698Y32157811D01*
X35474151Y32468880D01*
X34925000Y32578113D01*
X34375849Y32468880D01*
X33910302Y32157811D01*
X33640014Y31753297D01*
X33537389Y31970134D01*
X33122423Y32346041D01*
X32734039Y32506904D01*
X32512000Y32384915D01*
X32512000Y31242000D01*
X32532000Y31242000D01*
X32532000Y30988000D01*
X32512000Y30988000D01*
X32512000Y30968000D01*
X32258000Y30968000D01*
X32258000Y30988000D01*
X32238000Y30988000D01*
X32238000Y31242000D01*
X32258000Y31242000D01*
X32258000Y32384915D01*
X32035961Y32506904D01*
X31647577Y32346041D01*
X31232611Y31970134D01*
X31129986Y31753297D01*
X30859698Y32157811D01*
X30855000Y32160950D01*
X30855000Y34506644D01*
X32464178Y36115822D01*
X32683118Y36443490D01*
X32760000Y36830000D01*
X32760000Y37778337D01*
X32906120Y37875971D01*
X33033219Y38066188D01*
X33223683Y37824078D01*
X33781645Y37510856D01*
X33909566Y37479876D01*
X34163000Y37599223D01*
X34163000Y39243000D01*
X34143000Y39243000D01*
X34143000Y39497000D01*
X34163000Y39497000D01*
X34163000Y41140777D01*
X33909566Y41260124D01*
X33781645Y41229144D01*
X33223683Y40915922D01*
X33033219Y40673812D01*
X32906120Y40864029D01*
X32375687Y41218452D01*
X31750000Y41342909D01*
X31124313Y41218452D01*
X30593880Y40864029D01*
X30466781Y40673812D01*
X30276317Y40915922D01*
X29718355Y41229144D01*
X29590434Y41260124D01*
X29337000Y41140777D01*
X29337000Y39497000D01*
X29357000Y39497000D01*
X29357000Y39243000D01*
X29337000Y39243000D01*
X29337000Y37599223D01*
X29590434Y37479876D01*
X29718355Y37510856D01*
X30276317Y37824078D01*
X30466781Y38066188D01*
X30593880Y37875971D01*
X30740000Y37778337D01*
X30740000Y37248356D01*
X29130822Y35639178D01*
X28911882Y35311510D01*
X28835000Y34925000D01*
X28835000Y32160950D01*
X28830302Y32157811D01*
X28575000Y31775725D01*
X28319698Y32157811D01*
X27854151Y32468880D01*
X27305000Y32578113D01*
X26755849Y32468880D01*
X26290302Y32157811D01*
X26035000Y31775725D01*
X25779698Y32157811D01*
X25775000Y32160950D01*
X25775000Y37046644D01*
X26150916Y37422560D01*
X27670000Y37422560D01*
X27905317Y37466838D01*
X28121441Y37605910D01*
X28235349Y37772620D01*
X28701645Y37510856D01*
X28829566Y37479876D01*
X29083000Y37599223D01*
X29083000Y39243000D01*
X29063000Y39243000D01*
X29063000Y39497000D01*
X29083000Y39497000D01*
X29083000Y41140777D01*
X28829566Y41260124D01*
X28701645Y41229144D01*
X28233789Y40966505D01*
X28134090Y41121441D01*
X27921890Y41266431D01*
X27670000Y41317440D01*
X25670000Y41317440D01*
X25434683Y41273162D01*
X25218559Y41134090D01*
X25073569Y40921890D01*
X25022560Y40670000D01*
X25022560Y39150916D01*
X24050822Y38179178D01*
X23831882Y37851510D01*
X23755000Y37465000D01*
X23755000Y32160950D01*
X23750302Y32157811D01*
X23495000Y31775725D01*
X23239698Y32157811D01*
X22774151Y32468880D01*
X22225000Y32578113D01*
X21675849Y32468880D01*
X21210302Y32157811D01*
X20955000Y31775725D01*
X20699698Y32157811D01*
X20234151Y32468880D01*
X19685000Y32578113D01*
X19135849Y32468880D01*
X18670302Y32157811D01*
X18415000Y31775725D01*
X18159698Y32157811D01*
X17694151Y32468880D01*
X17514776Y32504560D01*
X18122000Y32504560D01*
X18357317Y32548838D01*
X18573441Y32687910D01*
X18718431Y32900110D01*
X18769440Y33152000D01*
X18769440Y34052000D01*
X18725162Y34287317D01*
X18586090Y34503441D01*
X18373890Y34648431D01*
X18122000Y34699440D01*
X17860139Y34699440D01*
X17155020Y35404560D01*
X18122000Y35404560D01*
X18357317Y35448838D01*
X18573441Y35587910D01*
X18718431Y35800110D01*
X18769440Y36052000D01*
X18769440Y36952000D01*
X18725162Y37187317D01*
X18586090Y37403441D01*
X18373890Y37548431D01*
X18157000Y37592352D01*
X18157000Y37779673D01*
X18301120Y37875971D01*
X18428219Y38066188D01*
X18618683Y37824078D01*
X19176645Y37510856D01*
X19304566Y37479876D01*
X19558000Y37599223D01*
X19558000Y39243000D01*
X19538000Y39243000D01*
X19538000Y39497000D01*
X19558000Y39497000D01*
X19558000Y39517000D01*
X19812000Y39517000D01*
X19812000Y39497000D01*
X19832000Y39497000D01*
X19832000Y39243000D01*
X19812000Y39243000D01*
X19812000Y37599223D01*
X20065434Y37479876D01*
X20193355Y37510856D01*
X20751317Y37824078D01*
X20941781Y38066188D01*
X21068880Y37875971D01*
X21340000Y37694815D01*
X21340000Y36506744D01*
X21178539Y36345564D01*
X20967241Y35836702D01*
X20966760Y35285715D01*
X21177169Y34776485D01*
X21566436Y34386539D01*
X22075298Y34175241D01*
X22626285Y34174760D01*
X23135515Y34385169D01*
X23525461Y34774436D01*
X23736759Y35283298D01*
X23737240Y35834285D01*
X23526831Y36343515D01*
X23137564Y36733461D01*
X23110000Y36744907D01*
X23110000Y37694815D01*
X23381120Y37875971D01*
X23735543Y38406404D01*
X23860000Y39032091D01*
X23860000Y39707909D01*
X23735543Y40333596D01*
X23381120Y40864029D01*
X22850687Y41218452D01*
X22225000Y41342909D01*
X21599313Y41218452D01*
X21068880Y40864029D01*
X20941781Y40673812D01*
X20751317Y40915922D01*
X20301661Y41168344D01*
X20389317Y41184838D01*
X20605441Y41323910D01*
X20750431Y41536110D01*
X20801440Y41788000D01*
X20801440Y42688000D01*
X20757162Y42923317D01*
X20618090Y43139441D01*
X20405890Y43284431D01*
X20154000Y43335440D01*
X18454000Y43335440D01*
X18218683Y43291162D01*
X18031923Y43170985D01*
X17865890Y43284431D01*
X17614000Y43335440D01*
X15914000Y43335440D01*
X15678683Y43291162D01*
X15491923Y43170985D01*
X15325890Y43284431D01*
X15074000Y43335440D01*
X13374000Y43335440D01*
X13138683Y43291162D01*
X12951923Y43170985D01*
X12785890Y43284431D01*
X12534000Y43335440D01*
X10834000Y43335440D01*
X10598683Y43291162D01*
X10411923Y43170985D01*
X10245890Y43284431D01*
X9994000Y43335440D01*
X8294000Y43335440D01*
X8058683Y43291162D01*
X7871923Y43170985D01*
X7705890Y43284431D01*
X7454000Y43335440D01*
X5754000Y43335440D01*
X5518683Y43291162D01*
X5302559Y43152090D01*
X5282683Y43123000D01*
X2614005Y43123000D01*
X2614000Y43123001D01*
X2275326Y43055634D01*
X2275324Y43055633D01*
X2275325Y43055633D01*
X1988210Y42863790D01*
X1988208Y42863787D01*
X1393000Y42268580D01*
X1393000Y43247420D01*
X1678787Y43533208D01*
X1678790Y43533210D01*
X1715790Y43570211D01*
X1864797Y43793217D01*
X2923829Y44852250D01*
X5119000Y44852250D01*
X5119000Y44561691D01*
X5215673Y44328302D01*
X5394301Y44149673D01*
X5627690Y44053000D01*
X6318250Y44053000D01*
X6477000Y44211750D01*
X6477000Y45011000D01*
X6731000Y45011000D01*
X6731000Y44211750D01*
X6889750Y44053000D01*
X7580310Y44053000D01*
X7813699Y44149673D01*
X7874000Y44209974D01*
X7934301Y44149673D01*
X8167690Y44053000D01*
X8858250Y44053000D01*
X9017000Y44211750D01*
X9017000Y45011000D01*
X9271000Y45011000D01*
X9271000Y44211750D01*
X9429750Y44053000D01*
X10120310Y44053000D01*
X10353699Y44149673D01*
X10414000Y44209974D01*
X10474301Y44149673D01*
X10707690Y44053000D01*
X11398250Y44053000D01*
X11557000Y44211750D01*
X11557000Y45011000D01*
X11811000Y45011000D01*
X11811000Y44211750D01*
X11969750Y44053000D01*
X12660310Y44053000D01*
X12893699Y44149673D01*
X12954000Y44209974D01*
X13014301Y44149673D01*
X13247690Y44053000D01*
X13938250Y44053000D01*
X14097000Y44211750D01*
X14097000Y45011000D01*
X11811000Y45011000D01*
X11557000Y45011000D01*
X9271000Y45011000D01*
X9017000Y45011000D01*
X6731000Y45011000D01*
X6477000Y45011000D01*
X5277750Y45011000D01*
X5119000Y44852250D01*
X2923829Y44852250D01*
X3668579Y45597000D01*
X5119000Y45597000D01*
X5119000Y45423750D01*
X5277750Y45265000D01*
X6477000Y45265000D01*
X6477000Y45285000D01*
X6731000Y45285000D01*
X6731000Y45265000D01*
X9017000Y45265000D01*
X9017000Y45285000D01*
X9271000Y45285000D01*
X9271000Y45265000D01*
X11557000Y45265000D01*
X11557000Y45285000D01*
X11811000Y45285000D01*
X11811000Y45265000D01*
X14097000Y45265000D01*
X14097000Y45285000D01*
X14351000Y45285000D01*
X14351000Y45265000D01*
X14371000Y45265000D01*
X14371000Y45011000D01*
X14351000Y45011000D01*
X14351000Y44211750D01*
X14509750Y44053000D01*
X15200310Y44053000D01*
X15433699Y44149673D01*
X15491897Y44207871D01*
X15662110Y44091569D01*
X15914000Y44040560D01*
X17614000Y44040560D01*
X17849317Y44084838D01*
X18037831Y44206143D01*
X18094301Y44149673D01*
X18327690Y44053000D01*
X19018250Y44053000D01*
X19177000Y44211750D01*
X19177000Y45011000D01*
X19431000Y45011000D01*
X19431000Y44211750D01*
X19589750Y44053000D01*
X20280310Y44053000D01*
X20513699Y44149673D01*
X20692327Y44328302D01*
X20789000Y44561691D01*
X20789000Y44852250D01*
X20630250Y45011000D01*
X19431000Y45011000D01*
X19177000Y45011000D01*
X19157000Y45011000D01*
X19157000Y45265000D01*
X19177000Y45265000D01*
X19177000Y46064250D01*
X19431000Y46064250D01*
X19431000Y45265000D01*
X20630250Y45265000D01*
X20789000Y45423750D01*
X20789000Y45714309D01*
X20692327Y45947698D01*
X20513699Y46126327D01*
X20280310Y46223000D01*
X19589750Y46223000D01*
X19431000Y46064250D01*
X19177000Y46064250D01*
X19018250Y46223000D01*
X18327690Y46223000D01*
X18094301Y46126327D01*
X18036103Y46068129D01*
X17865890Y46184431D01*
X17614000Y46235440D01*
X17596996Y46235440D01*
X17581633Y46312675D01*
X17389790Y46599790D01*
X17389787Y46599792D01*
X16881790Y47107790D01*
X16594675Y47299633D01*
X16538484Y47310810D01*
X16256000Y47367001D01*
X16255995Y47367000D01*
X3302000Y47367000D01*
X2963325Y47299633D01*
X2676210Y47107790D01*
X2676208Y47107787D01*
X427210Y44858790D01*
X278200Y44635779D01*
X127000Y44484579D01*
X127000Y47625000D01*
X59309000Y47625000D01*
X59309000Y127000D01*
G36*
X20976838Y6684683D02*
X21082000Y6521257D01*
X21082000Y6443750D01*
X21221715Y6304035D01*
X21128559Y6244090D01*
X20983569Y6031890D01*
X20955824Y5894880D01*
X20933162Y6015317D01*
X20794090Y6231441D01*
X20688106Y6303856D01*
X20828000Y6443750D01*
X20828000Y6524051D01*
X20926431Y6668110D01*
X20954176Y6805120D01*
X20976838Y6684683D01*
X20976838Y6684683D01*
G37*
X20976838Y6684683D02*
X21082000Y6521257D01*
X21082000Y6443750D01*
X21221715Y6304035D01*
X21128559Y6244090D01*
X20983569Y6031890D01*
X20955824Y5894880D01*
X20933162Y6015317D01*
X20794090Y6231441D01*
X20688106Y6303856D01*
X20828000Y6443750D01*
X20828000Y6524051D01*
X20926431Y6668110D01*
X20954176Y6805120D01*
X20976838Y6684683D01*
M02*
