G04 #@! TF.FileFunction,Copper,L1,Top,Signal*
%FSLAX46Y46*%
G04 Gerber Fmt 4.6, Leading zero omitted, Abs format (unit mm)*
G04 Created by KiCad (PCBNEW 4.0.7) date 06/02/18 17:24:57*
%MOMM*%
%LPD*%
G01*
G04 APERTURE LIST*
%ADD10C,0.100000*%
%ADD11C,0.150000*%
%ADD12R,1.600000X1.600000*%
%ADD13O,1.600000X1.600000*%
%ADD14R,3.000000X3.000000*%
%ADD15C,3.000000*%
%ADD16C,1.000000*%
%ADD17R,1.000000X1.000000*%
%ADD18R,1.800000X1.800000*%
%ADD19O,1.800000X1.800000*%
%ADD20C,1.600000*%
%ADD21R,2.000000X2.600000*%
%ADD22O,2.000000X2.600000*%
%ADD23C,2.600000*%
%ADD24C,1.500000*%
%ADD25C,0.750000*%
%ADD26C,1.000000*%
G04 APERTURE END LIST*
D10*
D11*
X1666666Y0D02*
G75*
G03X1666666Y0I-1666666J0D01*
G01*
X-2500000Y0D02*
X2500000Y0D01*
X0Y2500000D02*
X0Y-2500000D01*
D12*
X40005000Y31115000D03*
D13*
X6985000Y15875000D03*
X37465000Y31115000D03*
X9525000Y15875000D03*
X34925000Y31115000D03*
X12065000Y15875000D03*
X32385000Y31115000D03*
X14605000Y15875000D03*
X29845000Y31115000D03*
X17145000Y15875000D03*
X27305000Y31115000D03*
X19685000Y15875000D03*
X24765000Y31115000D03*
X22225000Y15875000D03*
X22225000Y31115000D03*
X24765000Y15875000D03*
X19685000Y31115000D03*
X27305000Y15875000D03*
X17145000Y31115000D03*
X29845000Y15875000D03*
X14605000Y31115000D03*
X32385000Y15875000D03*
X12065000Y31115000D03*
X34925000Y15875000D03*
X9525000Y31115000D03*
X37465000Y15875000D03*
X6985000Y31115000D03*
X40005000Y15875000D03*
X4445000Y31115000D03*
X4445000Y15875000D03*
D14*
X47625000Y40640000D03*
D15*
X52705000Y40640000D03*
D16*
X46355000Y31750000D03*
X47625000Y33020000D03*
D17*
X47625000Y30480000D03*
D18*
X46990000Y26670000D03*
D19*
X46990000Y24130000D03*
X46990000Y21590000D03*
D12*
X41910000Y41275000D03*
D20*
X41910000Y39275000D03*
D18*
X36576000Y44704000D03*
D19*
X44196000Y44704000D03*
D14*
X52705000Y7620000D03*
D15*
X47625000Y7620000D03*
X42545000Y7620000D03*
D21*
X26670000Y39370000D03*
D22*
X29210000Y39370000D03*
X31750000Y39370000D03*
X34290000Y39370000D03*
X36830000Y39370000D03*
D21*
X4445000Y39370000D03*
D22*
X6985000Y39370000D03*
X9525000Y39370000D03*
X12065000Y39370000D03*
X14605000Y39370000D03*
X17145000Y39370000D03*
X19685000Y39370000D03*
X22225000Y39370000D03*
D23*
X3175000Y3810000D03*
D24*
X4572000Y43688000D03*
X25908000Y43688000D03*
X2032000Y45720000D03*
X27432000Y46228000D03*
X6604000Y43688000D03*
X23876000Y43688000D03*
X46228000Y18288000D03*
X37592000Y18288000D03*
X9652000Y24384000D03*
X4572000Y24384000D03*
X35052000Y12192000D03*
X35052000Y2540000D03*
X36576000Y46736000D03*
X44196000Y26924000D03*
D25*
X4572000Y43688000D02*
X4572000Y47244000D01*
X4572000Y47244000D02*
X25908000Y47244000D01*
X25908000Y47244000D02*
X25908000Y43688000D01*
X2032000Y45720000D02*
X2032000Y48260000D01*
X2032000Y48260000D02*
X27432000Y48260000D01*
X27432000Y48260000D02*
X27432000Y46228000D01*
X6604000Y43688000D02*
X23876000Y43688000D01*
D26*
X46228000Y18288000D02*
X37592000Y18288000D01*
D25*
X9652000Y24384000D02*
X4572000Y24384000D01*
X35052000Y12192000D02*
X35052000Y2540000D01*
D26*
X36576000Y46736000D02*
X39116000Y46736000D01*
X39116000Y46736000D02*
X44196000Y41656000D01*
X44196000Y41656000D02*
X44196000Y26924000D01*
M02*
